<svg width="1446" height="730" viewBox="0 0 1446 730" fill="none" xmlns="http://www.w3.org/2000/svg" xmlns:xlink="http://www.w3.org/1999/xlink">
<rect x="213.815" y="183.329" width="393.871" height="423.251" transform="rotate(14.0776 213.815 183.329)" fill="#1D1D1D" stroke="#1D1D1D" stroke-width="3.67246"/>
<rect x="597.863" y="181.682" width="395.543" height="424.923" transform="rotate(14.08 597.863 181.682)" fill="white" stroke="#1D1D1D" stroke-width="2"/>
<rect x="982.291" y="183.329" width="393.871" height="423.251" transform="rotate(14.08 982.291 183.329)" fill="#1D1D1D" stroke="#1D1D1D" stroke-width="3.67246"/>
<path d="M1253.95 216.858C1246.31 227.161 1245.45 248.585 1245.45 248.585L1304.85 264.502L1320.59 205.773L1296.29 199.262C1296.29 199.262 1264.62 202.477 1253.95 216.858Z" fill="#1D1D1D"/>
<path d="M1372.76 248.693C1374.23 261.436 1364.26 280.42 1364.26 280.42L1304.85 264.502L1320.59 205.773L1344.89 212.285C1344.89 212.285 1370.71 230.905 1372.76 248.693Z" fill="#1D1D1D"/>
<path d="M1296.29 199.258L1345.57 212.463C1345.57 212.463 1353.03 209.105 1357.86 207.075C1362.9 204.961 1365.88 204.171 1370.83 201.869C1375.56 199.67 1382.64 195.625 1382.64 195.625C1382.64 195.625 1377.22 185.995 1375.45 179.23C1373.69 172.461 1372.46 168.283 1373.72 161.401C1375.07 153.975 1379.04 150.887 1382.65 144.26C1387.66 135.078 1391.2 130.337 1396.1 121.093C1400.9 112.01 1404.92 107.328 1407.51 97.3821C1410.18 87.1254 1411.15 80.6585 1408.99 70.2833C1406.62 58.9418 1404.09 51.3138 1395.02 44.1115C1387.1 37.8246 1376.74 28.1897 1370.4 36.0689C1367.66 39.4711 1367.51 46.8696 1367.51 46.8696C1367.51 46.8696 1303.1 76.639 1296.2 83.4734C1289.31 90.3078 1291.86 99.6745 1291.86 99.6745C1291.86 99.6745 1299.3 103.243 1299.86 107.607C1300.21 110.314 1298.06 114.358 1298.06 114.358C1298.06 114.358 1305.31 117.002 1309.89 116.082C1316.43 114.771 1316.47 106.597 1322.96 105.114C1329.61 103.595 1338.8 102.892 1339.84 109.636C1340.29 112.603 1338.76 114.203 1337.85 117.061C1327.95 147.913 1266.68 139.756 1274.89 171.097C1278.39 184.457 1296.29 199.258 1296.29 199.258Z" fill="#1D1D1D"/>
<path d="M236.099 634.719C245.752 647.733 246.837 674.794 246.837 674.794L171.803 694.9L151.926 620.719L182.622 612.494C182.622 612.494 222.626 616.555 236.099 634.719Z" fill="#1D1D1D"/>
<path d="M236.099 634.719C245.752 647.733 246.837 674.794 246.837 674.794L171.803 694.9L151.926 620.719L182.622 612.494C182.622 612.494 222.626 616.555 236.099 634.719Z" fill="url(#pattern0_7035_8977)"/>
<path d="M86.0297 674.93C84.1773 691.027 96.7677 715.005 96.7677 715.005L171.803 694.9L151.926 620.719L121.23 628.944C121.23 628.944 88.6154 652.463 86.0297 674.93Z" fill="#1D1D1D"/>
<path d="M86.0297 674.93C84.1773 691.027 96.7677 715.005 96.7677 715.005L171.803 694.9L151.926 620.719L121.23 628.944C121.23 628.944 88.6154 652.463 86.0297 674.93Z" fill="url(#pattern1_7035_8977)"/>
<path d="M182.617 612.491L120.372 629.169C120.372 629.169 110.946 624.929 104.84 622.364C98.4835 619.695 94.7075 618.696 88.4559 615.788C82.4841 613.011 73.5485 607.902 73.5485 607.902C73.5485 607.902 80.3944 595.737 82.6218 587.194C84.8509 578.643 86.3984 573.366 84.8126 564.674C83.1013 555.294 78.0946 551.393 73.5279 543.023C67.1997 531.424 62.7303 525.436 56.5479 513.759C50.4737 502.287 45.3955 496.373 42.1259 483.81C38.7541 470.855 37.5329 462.687 40.2655 449.582C43.2526 435.256 46.4478 425.621 57.9103 416.524C67.9158 408.583 80.9946 396.413 89.0021 406.365C92.4598 410.662 92.6576 420.007 92.6576 420.007C92.6576 420.007 174.016 457.609 182.726 466.242C191.437 474.874 188.21 486.705 188.21 486.705C188.21 486.705 178.814 491.213 178.1 496.725C177.657 500.144 180.385 505.252 180.385 505.252C180.385 505.252 171.218 508.592 165.432 507.431C157.181 505.774 157.131 495.449 148.926 493.576C140.524 491.658 128.92 490.77 127.609 499.288C127.032 503.036 128.964 505.056 130.122 508.667C142.62 547.636 220.017 537.333 209.641 576.92C205.218 593.795 182.617 612.491 182.617 612.491Z" fill="#1D1D1D"/>
<path d="M182.617 612.491L120.372 629.169C120.372 629.169 110.946 624.929 104.84 622.364C98.4835 619.695 94.7075 618.696 88.4559 615.788C82.4841 613.011 73.5485 607.902 73.5485 607.902C73.5485 607.902 80.3944 595.737 82.6218 587.194C84.8509 578.643 86.3984 573.366 84.8126 564.674C83.1013 555.294 78.0946 551.393 73.5279 543.023C67.1997 531.424 62.7303 525.436 56.5479 513.759C50.4737 502.287 45.3955 496.373 42.1259 483.81C38.7541 470.855 37.5329 462.687 40.2655 449.582C43.2526 435.256 46.4478 425.621 57.9103 416.524C67.9158 408.583 80.9946 396.413 89.0021 406.365C92.4598 410.662 92.6576 420.007 92.6576 420.007C92.6576 420.007 174.016 457.609 182.726 466.242C191.437 474.874 188.21 486.705 188.21 486.705C188.21 486.705 178.814 491.213 178.1 496.725C177.657 500.144 180.385 505.252 180.385 505.252C180.385 505.252 171.218 508.592 165.432 507.431C157.181 505.774 157.131 495.449 148.926 493.576C140.524 491.658 128.92 490.77 127.609 499.288C127.032 503.036 128.964 505.056 130.122 508.667C142.62 547.636 220.017 537.333 209.641 576.92C205.218 593.795 182.617 612.491 182.617 612.491Z" fill="url(#pattern2_7035_8977)"/>
<rect x="1312.2" y="156.098" width="49.7141" height="111.223" transform="rotate(19.5684 1312.2 156.098)" fill="#1D1D1D"/>
<defs>
<pattern id="pattern0_7035_8977" patternUnits="userSpaceOnUse" patternTransform="matrix(174.62 -46.7894 16.2624 60.692 151.926 620.719)" preserveAspectRatio="none" viewBox="0 0 1036.34 360.195" width="1" height="1">
<use xlink:href="#pattern0_7035_8977_inner" transform="translate(0 -360.195)"/>
<use xlink:href="#pattern0_7035_8977_inner" transform="translate(518.168 -180.097)"/>
<g id="pattern0_7035_8977_inner">
<path d="M64.7229 60.095H0V120.195H64.7229V60.095Z" fill="white"/>
<path d="M129.446 120.197H64.7227V180.296H129.446V120.197Z" fill="white"/>
<path d="M129.446 0.00170898H64.7227V60.1016H129.446V0.00170898Z" fill="white"/>
<path d="M194.168 60.095H129.445V120.195H194.168V60.095Z" fill="white"/>
<path d="M258.891 120.197H194.168V180.296H258.891V120.197Z" fill="white"/>
<path d="M258.891 0.00170898H194.168V60.1016H258.891V0.00170898Z" fill="white"/>
<path d="M453.445 60.0999H518.168V3.8147e-06H453.445V60.0999Z" fill="white"/>
<path d="M388.722 120.193H453.445V60.0933H388.722V120.193Z" fill="white"/>
<path d="M324 60.0999H388.723V3.8147e-06H324V60.0999Z" fill="white"/>
<path d="M453.445 180.296H518.168V120.196H453.445V180.296Z" fill="white"/>
<path d="M324 180.296H388.723V120.196H324V180.296Z" fill="white"/>
<path d="M259.277 120.193H324V60.0933H259.277V120.193Z" fill="white"/>
<path d="M64.7229 300.095H0V360.195H64.7229V300.095Z" fill="white"/>
<path d="M129.446 240.002H64.7227V300.102H129.446V240.002Z" fill="white"/>
<path d="M194.168 300.095H129.445V360.195H194.168V300.095Z" fill="white"/>
<path d="M64.7229 179.899H0V239.999H64.7229V179.899Z" fill="white"/>
<path d="M194.168 179.899H129.445V239.999H194.168V179.899Z" fill="white"/>
<path d="M258.891 240.002H194.168V300.102H258.891V240.002Z" fill="white"/>
<path d="M453.445 300.1H518.168V240H453.445V300.1Z" fill="white"/>
<path d="M388.722 239.998H453.445V179.898H388.722V239.998Z" fill="white"/>
<path d="M388.722 360.193H453.445V300.093H388.722V360.193Z" fill="white"/>
<path d="M324 300.1H388.723V240H324V300.1Z" fill="white"/>
<path d="M259.277 239.998H324V179.898H259.277V239.998Z" fill="white"/>
<path d="M259.277 360.193H324V300.093H259.277V360.193Z" fill="white"/>
</g>
<use xlink:href="#pattern0_7035_8977_inner" transform="translate(518.168 180.097)"/>
</pattern><pattern id="pattern1_7035_8977" patternUnits="userSpaceOnUse" patternTransform="matrix(-174.62 46.7894 16.2624 60.692 151.926 620.719)" preserveAspectRatio="none" viewBox="0 0 1036.34 360.195" width="1" height="1">
<use xlink:href="#pattern1_7035_8977_inner" transform="translate(0 -360.195)"/>
<use xlink:href="#pattern1_7035_8977_inner" transform="translate(518.168 -180.097)"/>
<g id="pattern1_7035_8977_inner">
<path d="M64.7229 60.095H0V120.195H64.7229V60.095Z" fill="white"/>
<path d="M129.446 120.197H64.7227V180.296H129.446V120.197Z" fill="white"/>
<path d="M129.446 0.00170898H64.7227V60.1016H129.446V0.00170898Z" fill="white"/>
<path d="M194.168 60.095H129.445V120.195H194.168V60.095Z" fill="white"/>
<path d="M258.891 120.197H194.168V180.296H258.891V120.197Z" fill="white"/>
<path d="M258.891 0.00170898H194.168V60.1016H258.891V0.00170898Z" fill="white"/>
<path d="M453.445 60.0999H518.168V3.8147e-06H453.445V60.0999Z" fill="white"/>
<path d="M388.722 120.193H453.445V60.0933H388.722V120.193Z" fill="white"/>
<path d="M324 60.0999H388.723V3.8147e-06H324V60.0999Z" fill="white"/>
<path d="M453.445 180.296H518.168V120.196H453.445V180.296Z" fill="white"/>
<path d="M324 180.296H388.723V120.196H324V180.296Z" fill="white"/>
<path d="M259.277 120.193H324V60.0933H259.277V120.193Z" fill="white"/>
<path d="M64.7229 300.095H0V360.195H64.7229V300.095Z" fill="white"/>
<path d="M129.446 240.002H64.7227V300.102H129.446V240.002Z" fill="white"/>
<path d="M194.168 300.095H129.445V360.195H194.168V300.095Z" fill="white"/>
<path d="M64.7229 179.899H0V239.999H64.7229V179.899Z" fill="white"/>
<path d="M194.168 179.899H129.445V239.999H194.168V179.899Z" fill="white"/>
<path d="M258.891 240.002H194.168V300.102H258.891V240.002Z" fill="white"/>
<path d="M453.445 300.1H518.168V240H453.445V300.1Z" fill="white"/>
<path d="M388.722 239.998H453.445V179.898H388.722V239.998Z" fill="white"/>
<path d="M388.722 360.193H453.445V300.093H388.722V360.193Z" fill="white"/>
<path d="M324 300.1H388.723V240H324V300.1Z" fill="white"/>
<path d="M259.277 239.998H324V179.898H259.277V239.998Z" fill="white"/>
<path d="M259.277 360.193H324V300.093H259.277V360.193Z" fill="white"/>
</g>
<use xlink:href="#pattern1_7035_8977_inner" transform="translate(518.168 180.097)"/>
</pattern><pattern id="pattern2_7035_8977" patternUnits="userSpaceOnUse" patternTransform="matrix(174.62 -46.7894 16.2624 60.692 21.1749 412.441)" preserveAspectRatio="none" viewBox="0 0 1036.34 360.195" width="1" height="1">
<use xlink:href="#pattern2_7035_8977_inner" transform="translate(0 -360.195)"/>
<use xlink:href="#pattern2_7035_8977_inner" transform="translate(518.168 -180.097)"/>
<g id="pattern2_7035_8977_inner">
<path d="M64.7229 60.095H0V120.195H64.7229V60.095Z" fill="white"/>
<path d="M129.446 120.197H64.7227V180.296H129.446V120.197Z" fill="white"/>
<path d="M129.446 0.00170898H64.7227V60.1016H129.446V0.00170898Z" fill="white"/>
<path d="M194.168 60.095H129.445V120.195H194.168V60.095Z" fill="white"/>
<path d="M258.891 120.197H194.168V180.296H258.891V120.197Z" fill="white"/>
<path d="M258.891 0.00170898H194.168V60.1016H258.891V0.00170898Z" fill="white"/>
<path d="M453.445 60.0999H518.168V3.8147e-06H453.445V60.0999Z" fill="white"/>
<path d="M388.722 120.193H453.445V60.0933H388.722V120.193Z" fill="white"/>
<path d="M324 60.0999H388.723V3.8147e-06H324V60.0999Z" fill="white"/>
<path d="M453.445 180.296H518.168V120.196H453.445V180.296Z" fill="white"/>
<path d="M324 180.296H388.723V120.196H324V180.296Z" fill="white"/>
<path d="M259.277 120.193H324V60.0933H259.277V120.193Z" fill="white"/>
<path d="M64.7229 300.095H0V360.195H64.7229V300.095Z" fill="white"/>
<path d="M129.446 240.002H64.7227V300.102H129.446V240.002Z" fill="white"/>
<path d="M194.168 300.095H129.445V360.195H194.168V300.095Z" fill="white"/>
<path d="M64.7229 179.899H0V239.999H64.7229V179.899Z" fill="white"/>
<path d="M194.168 179.899H129.445V239.999H194.168V179.899Z" fill="white"/>
<path d="M258.891 240.002H194.168V300.102H258.891V240.002Z" fill="white"/>
<path d="M453.445 300.1H518.168V240H453.445V300.1Z" fill="white"/>
<path d="M388.722 239.998H453.445V179.898H388.722V239.998Z" fill="white"/>
<path d="M388.722 360.193H453.445V300.093H388.722V360.193Z" fill="white"/>
<path d="M324 300.1H388.723V240H324V300.1Z" fill="white"/>
<path d="M259.277 239.998H324V179.898H259.277V239.998Z" fill="white"/>
<path d="M259.277 360.193H324V300.093H259.277V360.193Z" fill="white"/>
</g>
<use xlink:href="#pattern2_7035_8977_inner" transform="translate(518.168 180.097)"/>
</pattern></defs>
</svg>
