<svg width="1446" height="793" viewBox="0 0 1446 793" fill="none" xmlns="http://www.w3.org/2000/svg">
<g clip-path="url(#clip0_6980_8685)">
<path d="M1884.34 398.715L1772.71 281.158M1884.34 398.715L1959.03 -123.042L1875.31 -211.21M1884.34 398.715L914.323 608.693L841.663 543.051M1772.71 281.158L841.663 543.051M1772.71 281.158L1875.31 -211.21M841.663 543.051L1014.04 129.692L1051.96 114.684M1875.31 -211.21L1823.85 -190.842M1823.85 -190.842L1750.3 261.104L900.675 489.387L1051.96 114.684M1823.85 -190.842L1051.96 114.684" stroke="#1D1D1D" stroke-width="3"/>
<path d="M1489.05 -56.8134L1382.86 -15.5961L1357.67 71.6713L1460.03 30.3554L1489.05 -56.8134Z" fill="#1D1D1D"/>
<path d="M1297.93 16.6134L1209.08 52.5446L1176.24 139.615L1268.91 103.782L1297.93 16.6134Z" fill="#1D1D1D"/>
<path d="M1133.75 83.092L1050.78 113.441L1017.94 200.511L1101.01 166.342L1133.75 83.092Z" fill="#1D1D1D"/>
<path d="M1112.13 327.174L1021.42 361.146L980.646 459.479L1069.2 435.008L1112.13 327.174Z" fill="#1D1D1D"/>
<path d="M1293.26 270.691L1198.82 300.744L1159.71 408.676L1259.82 380.68L1293.26 270.691Z" fill="#1D1D1D"/>
<path d="M1233.92 200.352L1147.13 230.603L1112.13 327.173L1198.82 300.743L1233.92 200.352Z" fill="#1D1D1D"/>
<path d="M1357.67 71.6723L1268.92 103.784L1233.92 200.354L1328.55 162.661L1357.67 71.6723Z" fill="#1D1D1D"/>
<path d="M1058.38 262.715L981.284 287.482L942.469 383.954L1021.42 361.146L1058.38 262.715Z" fill="#1D1D1D"/>
<path d="M1176.24 139.615L1101.01 166.342L1058.38 262.715L1147.13 230.604L1176.24 139.615Z" fill="#1D1D1D"/>
<path d="M1430.72 128.984L1328.55 162.66L1293.25 270.69L1399.24 237.113L1430.72 128.984Z" fill="#1D1D1D"/>
<path d="M1508.96 207.455L1399.24 237.114L1363.75 352.785L1483.06 321.463L1508.96 207.455Z" fill="#1D1D1D"/>
<path d="M1570.04 -10.7642L1460.03 30.3544L1430.72 128.983L1534.85 93.4464L1570.04 -10.7642Z" fill="#1D1D1D"/>
<path d="M1919.96 -164.187L1836.07 343.953L887.086 583.929" stroke="#1D1D1D" stroke-width="3"/>
<path d="M-171.213 356.925L-71.8531 237.021M-171.213 356.925L-276.627 -138.277L-202.108 -228.205M-171.213 356.925L772.054 495.268L837.434 427.645M-71.8531 237.021L837.434 427.645M-71.8531 237.021L-202.108 -228.205M837.434 427.645L645.422 42.6652L608.11 30.7401M-202.108 -228.205L-151.469 -212.021M-151.469 -212.021L-51.6725 216.349L777.398 380.041L608.11 30.7401M-151.469 -212.021L608.11 30.7401" stroke="#1D1D1D" stroke-width="2.88173"/>
<path d="M26.8801 12.1047L143.942 41.6963L176.149 149.28L59.0869 119.689L26.8801 12.1047Z" fill="#1D1D1D"/>
<path d="M178.09 -105.28L282.532 -72.6629L312.341 9.33912L211.553 -23.6197L178.09 -105.28Z" fill="#1D1D1D"/>
<path d="M366.015 -47.3021L453.498 -18.6273L490.615 62.6903L399.478 34.3577L366.015 -47.3021Z" fill="#1D1D1D"/>
<path d="M527.675 5.76436L609.162 29.4705L646.279 110.788L564.45 83.4274L527.675 5.76436Z" fill="#1D1D1D"/>
<path d="M564.226 238.288L653.365 264.964L698.819 356.561L612.365 338.85L564.226 238.288Z" fill="#1D1D1D"/>
<path d="M386.977 195.898L479.427 218.578L523.911 319.482L426.15 299.143L386.977 195.898Z" fill="#1D1D1D"/>
<path d="M439.281 124.642L524.422 148.006L564.224 238.289L479.425 218.579L439.281 124.642Z" fill="#1D1D1D"/>
<path d="M312.34 9.33893L399.479 34.3591L439.281 124.642L346.145 94.6533L312.34 9.33893Z" fill="#1D1D1D"/>
<path d="M611.566 173.026L687.057 191.764L730.513 281.704L653.366 264.965L611.566 173.026Z" fill="#1D1D1D"/>
<path d="M490.616 62.6898L564.451 83.4258L611.562 173.024L524.422 148.004L490.616 62.6898Z" fill="#1D1D1D"/>
<path d="M246.04 69.004L346.142 94.6537L386.971 195.9L283.214 170.593L246.04 69.004Z" fill="#1D1D1D"/>
<path d="M176.146 149.282L283.215 170.593L324.729 279.149L208.352 256.867L176.146 149.282Z" fill="#1D1D1D"/>
<path d="M103.454 -55.8963L211.551 -23.6219L246.041 69.0016L143.94 41.6957L103.454 -55.8963Z" fill="#1D1D1D"/>
<path d="M-118.39 -121.757L-4.63975 -88.169L26.8817 12.1059L-91.8364 -15.4872L-118.39 -121.757Z" fill="#1D1D1D"/>
<path d="M-57.9753 90.0969L59.0868 119.688L91.6361 230.927L-25.426 201.336L-57.9753 90.0969Z" fill="#1D1D1D"/>
<path d="M-241.849 -180.244L-128.497 301.312L796.553 469.768" stroke="#1D1D1D" stroke-width="2.88173"/>
<path d="M867.725 84.1068C872.517 89.6768 871.345 102.57 871.345 102.57L848.601 107.029L837.426 50.0352L842.777 48.9858L847.059 48.1464C847.059 48.1464 849.005 51.2241 847.951 52.6952C846.958 54.0798 843.669 53.5347 843.669 53.5347L846.817 69.5893C846.817 69.5893 849.405 70.7968 850.39 72.2231C851.601 73.9755 851.439 77.5747 851.439 77.5747C851.439 77.5747 863.256 78.9121 867.725 84.1068Z" fill="#1D1D1D"/>
<path d="M822.502 92.9732C820.169 99.9403 826.122 111.436 826.122 111.436L848.867 106.976L837.691 49.9824L832.34 51.0317L828.059 51.8712C828.059 51.8712 827.418 55.4562 828.951 56.42C830.393 57.3272 833.232 55.5806 833.232 55.5806L836.38 71.6352C836.38 71.6352 834.44 73.7306 834.066 75.4233C833.607 77.5029 835.115 80.7748 835.115 80.7748C835.115 80.7748 824.679 86.4756 822.502 92.9732Z" fill="#1D1D1D"/>
<ellipse cx="835.678" cy="37.5373" rx="10.0889" ry="10.0889" transform="rotate(-11.0936 835.678 37.5373)" fill="#1D1D1D"/>
<path d="M954.873 135.077C957.467 145.978 944.188 161.707 944.188 161.707L915.872 150.345L958.883 43.1523L964.613 45.4516L961.638 52.8675L968.042 55.4373L971.018 48.0215L976.074 50.0502C976.074 50.0502 974.244 60.7301 969.853 65.5562C966.11 69.6693 957.57 72.7597 957.57 72.7597L947.13 122.186C947.13 122.186 953.513 129.364 954.873 135.077Z" fill="#1D1D1D"/>
<path d="M898.242 112.354C888.833 118.439 887.557 138.984 887.557 138.984L915.872 150.345L958.883 43.1523L953.152 40.853L950.177 48.2689L943.772 45.6991L946.748 38.2832L941.691 36.2544C941.691 36.2544 935.632 45.2377 935.47 51.7604C935.331 57.3195 939.367 65.4561 939.367 65.4561L912.747 108.391C912.747 108.391 903.173 109.166 898.242 112.354Z" fill="#1D1D1D"/>
<circle cx="774.474" cy="144.255" r="7.5" transform="rotate(-36.9282 774.474 144.255)" fill="#1D1D1D"/>
<path d="M901.275 242.227C908.959 247.927 915.994 261.812 915.994 261.812L882.42 287.046L777.578 147.553L781.575 144.549C781.575 144.549 803.272 151.009 810.893 161.919C816.338 169.715 818.316 185.111 818.316 185.111C818.316 185.111 839.419 183.648 837.122 190.992C835.782 195.278 827.929 197.902 827.929 197.902L862.563 230.666C862.563 230.666 864.016 228.809 865.361 228.563C868.05 228.072 869.566 234.159 869.566 234.159C869.566 234.159 891.013 234.614 901.275 242.227Z" fill="#1D1D1D"/>
<path d="M834.294 292.57C837.633 301.537 849.014 312.155 849.014 312.155L882.588 286.921L777.746 147.428L773.749 150.432C773.749 150.432 773.922 173.07 782.283 183.423C788.258 190.822 802.497 197.003 802.497 197.003C802.497 197.003 795.223 216.866 802.917 216.702C807.407 216.606 812.11 209.793 812.11 209.793L833.953 252.171C833.953 252.171 831.765 253.05 831.155 254.273C829.935 256.72 835.361 259.869 835.361 259.869C835.361 259.869 829.835 280.596 834.294 292.57Z" fill="#1D1D1D"/>
<rect x="885.43" y="284.619" width="8.01644" height="185.062" transform="rotate(143 885.43 284.619)" fill="#1D1D1D"/>
<rect x="921.012" y="151.285" width="8.01644" height="114.025" transform="rotate(-158.936 921.012 151.285)" fill="#1D1D1D"/>
</g>
<defs>
<clipPath id="clip0_6980_8685">
<rect width="1446" height="793" fill="white"/>
</clipPath>
</defs>
</svg>
