<svg width="1440" height="920" viewBox="0 0 1440 920" fill="none" xmlns="http://www.w3.org/2000/svg" xmlns:xlink="http://www.w3.org/1999/xlink">
<g clip-path="url(#clip0_7075_11950)">
<path d="M1415.37 755.641C1437.43 794.454 1415.37 869.959 1415.37 869.959H1274.55V517.064H1307.69H1334.19C1334.19 517.064 1342.2 537.691 1334.19 545.23C1326.66 552.325 1307.69 545.23 1307.69 545.23V644.637C1307.69 644.637 1321.7 654.862 1325.91 664.518C1331.08 676.381 1325.91 697.653 1325.91 697.653C1325.91 697.653 1394.8 719.443 1415.37 755.641Z" fill="#1D1D1D"/>
<path d="M1135.38 755.641C1113.33 794.454 1135.38 869.959 1135.38 869.959H1276.21V517.064H1243.07H1216.56C1216.56 517.064 1208.56 537.691 1216.56 545.23C1224.1 552.325 1243.07 545.23 1243.07 545.23V644.637C1243.07 644.637 1229.05 654.862 1224.85 664.518C1219.68 676.381 1224.85 697.653 1224.85 697.653C1224.85 697.653 1155.96 719.443 1135.38 755.641Z" fill="#1D1D1D"/>
<ellipse cx="1275.32" cy="443.303" rx="61.2993" ry="61.3009" fill="#1D1D1D"/>
<path d="M151.595 229.27L223.012 343.121L308.984 301.322L237.567 187.471L151.595 229.27Z" fill="#1D1D1D"/>
<path d="M-19.6624 313.337L51.7539 427.188L137.726 385.389L66.3094 271.538L-19.6624 313.337Z" fill="#1D1D1D"/>
<path d="M308.998 301.653L380.414 415.504L466.386 373.705L394.97 259.854L308.998 301.653Z" fill="#1D1D1D"/>
<path d="M137.466 385.055L208.883 498.906L294.855 457.107L223.438 343.256L137.466 385.055Z" fill="#1D1D1D"/>
<path d="M123.271 540.717L194.688 654.568L280.659 612.769L209.243 498.918L123.271 540.717Z" fill="#1D1D1D"/>
<path d="M-33.8617 469.001L37.5547 582.852L123.526 541.053L52.1101 427.202L-33.8617 469.001Z" fill="#1D1D1D"/>
<path d="M466.459 374.163L537.875 488.014L623.847 446.215L552.43 332.364L466.459 374.163Z" fill="#1D1D1D"/>
<path d="M623.002 446.182L694.418 560.033L780.39 518.234L708.973 404.383L623.002 446.182Z" fill="#1D1D1D"/>
<path d="M294.591 457.59L366.008 571.441L451.98 529.642L380.563 415.791L294.591 457.59Z" fill="#1D1D1D"/>
<path d="M451.685 530.126L523.102 643.977L609.073 602.178L537.657 488.327L451.685 530.126Z" fill="#1D1D1D"/>
<path d="M280.392 613.229L351.809 727.08L437.78 685.281L366.364 571.43L280.392 613.229Z" fill="#1D1D1D"/>
<path d="M-49.0023 623.01L22.4141 736.861L108.386 695.062L36.9695 581.211L-49.0023 623.01Z" fill="#1D1D1D"/>
<path d="M108.123 695.544L179.539 809.395L265.511 767.596L194.095 653.745L108.123 695.544Z" fill="#1D1D1D"/>
<path d="M638.146 290.518L709.562 404.369L795.534 362.57L724.118 248.719L638.146 290.518Z" fill="#1D1D1D"/>
<path d="M780.123 517.901L851.539 631.752L937.511 589.953L866.095 476.102L780.123 517.901Z" fill="#1D1D1D"/>
<path d="M608.806 601.819L680.223 715.67L766.194 673.871L694.778 560.02L608.806 601.819Z" fill="#1D1D1D"/>
<path d="M481.021 218.798L552.438 332.648L638.409 290.849L566.993 176.999L481.021 218.798Z" fill="#1D1D1D"/>
<path d="M437.486 685.764L508.902 799.615L594.874 757.816L523.458 643.965L437.486 685.764Z" fill="#1D1D1D"/>
<path d="M795.267 362.235L866.684 476.086L952.655 434.287L881.239 320.436L795.267 362.235Z" fill="#1D1D1D"/>
<path d="M765.927 673.54L837.344 787.391L923.316 745.592L851.899 631.741L765.927 673.54Z" fill="#1D1D1D"/>
<path d="M594.978 757.243L666.395 871.094L752.366 829.295L680.95 715.444L594.978 757.243Z" fill="#1D1D1D"/>
<path d="M266.006 766.813L337.422 880.664L423.394 838.865L351.977 725.014L266.006 766.813Z" fill="#1D1D1D"/>
<path d="M-63.0023 778.122L8.41406 891.973L94.3859 850.174L22.9695 736.323L-63.0023 778.122Z" fill="#1D1D1D"/>
<path d="M951.494 432.327L1022.91 546.178L1108.88 504.379L1037.47 390.528L951.494 432.327Z" fill="#1D1D1D"/>
<path d="M966.638 276.663L1038.05 390.514L1124.03 348.715L1052.61 234.864L966.638 276.663Z" fill="#1D1D1D"/>
<path d="M937.295 587.964L1008.71 701.814L1094.68 660.015L1023.27 546.165L937.295 587.964Z" fill="#1D1D1D"/>
<circle cx="1409.16" cy="204.868" r="27.866" fill="#1D1D1D"/>
<path d="M1564.39 779.775C1574.48 813.859 1564.39 870.803 1564.39 870.803H1408.34V222.455H1426.91C1426.91 222.455 1476.94 290.077 1475.21 339.492C1473.98 374.804 1445.49 424.948 1445.49 424.948C1445.49 424.948 1511.43 467.709 1488.22 484.395C1474.67 494.134 1445.49 484.395 1445.49 484.395L1475.21 659.022C1475.21 659.022 1483.68 656.751 1488.22 659.022C1497.3 663.564 1488.22 685.03 1488.22 685.03C1488.22 685.03 1550.9 734.256 1564.39 779.775Z" fill="#1D1D1D"/>
<path d="M1253.06 779.775C1242.96 813.859 1253.06 870.803 1253.06 870.803H1409.11V222.455H1390.53C1390.53 222.455 1340.51 290.077 1342.23 339.492C1343.46 374.804 1371.95 424.948 1371.95 424.948C1371.95 424.948 1306.01 467.709 1329.23 484.395C1342.78 494.134 1371.95 484.395 1371.95 484.395L1342.23 659.022C1342.23 659.022 1333.77 656.751 1329.23 659.022C1320.14 663.564 1329.23 685.03 1329.23 685.03C1329.23 685.03 1266.55 734.256 1253.06 779.775Z" fill="#1D1D1D"/>
<path d="M1188.72 816.691C1181 836.222 1188.72 870.466 1188.72 870.466H1289.41V770.926H1248.22C1248.22 770.926 1199.49 789.43 1188.72 816.691Z" fill="#1D1D1D"/>
<path d="M1188.72 816.691C1181 836.222 1188.72 870.466 1188.72 870.466H1289.41V770.926H1248.22C1248.22 770.926 1199.49 789.43 1188.72 816.691Z" fill="url(#pattern0_7075_11950)"/>
<path d="M1390.09 816.691C1397.81 836.222 1390.09 870.466 1390.09 870.466H1289.41V770.926H1330.6C1330.6 770.926 1379.32 789.43 1390.09 816.691Z" fill="#1D1D1D"/>
<path d="M1390.09 816.691C1397.81 836.222 1390.09 870.466 1390.09 870.466H1289.41V770.926H1330.6C1330.6 770.926 1379.32 789.43 1390.09 816.691Z" fill="url(#pattern1_7075_11950)"/>
<path d="M1248.23 770.917H1331.76C1331.76 770.917 1342.13 762.445 1348.92 757.187C1355.98 751.712 1360.37 749.195 1367.22 743.457C1373.77 737.977 1383.24 728.583 1383.24 728.583C1383.24 728.583 1370.59 715.65 1364.94 705.701C1359.28 695.744 1355.57 689.656 1354.64 678.241C1353.63 665.924 1358.59 659.361 1361.5 647.35C1365.53 630.706 1369.12 621.71 1372.94 605.017C1376.7 588.616 1381.07 579.509 1380.95 562.684C1380.83 545.333 1379.62 534.697 1371.8 519.207C1363.26 502.273 1356.02 491.283 1338.62 483.738C1323.43 477.153 1302.97 466.304 1296.29 481.45C1293.4 487.99 1296.29 499.756 1296.29 499.756C1296.29 499.756 1207.04 574.125 1199.03 587.855C1191.02 601.584 1199.03 615.314 1199.03 615.314C1199.03 615.314 1212.31 617.805 1215.05 624.467C1216.75 628.599 1215.05 635.908 1215.05 635.908C1215.05 635.908 1227.65 637.015 1234.5 633.62C1244.28 628.778 1240.88 615.835 1250.52 610.737C1260.4 605.518 1274.62 600.513 1279.12 610.737C1281.1 615.236 1279.36 618.414 1279.12 623.323C1276.55 676.303 1176.19 689.367 1202.46 735.448C1213.66 755.092 1248.23 770.917 1248.23 770.917Z" fill="#1D1D1D"/>
<path d="M1248.23 770.917H1331.76C1331.76 770.917 1342.13 762.445 1348.92 757.187C1355.98 751.712 1360.37 749.195 1367.22 743.457C1373.77 737.977 1383.24 728.583 1383.24 728.583C1383.24 728.583 1370.59 715.65 1364.94 705.701C1359.28 695.744 1355.57 689.656 1354.64 678.241C1353.63 665.924 1358.59 659.361 1361.5 647.35C1365.53 630.706 1369.12 621.71 1372.94 605.017C1376.7 588.616 1381.07 579.509 1380.95 562.684C1380.83 545.333 1379.62 534.697 1371.8 519.207C1363.26 502.273 1356.02 491.283 1338.62 483.738C1323.43 477.153 1302.97 466.304 1296.29 481.45C1293.4 487.99 1296.29 499.756 1296.29 499.756C1296.29 499.756 1207.04 574.125 1199.03 587.855C1191.02 601.584 1199.03 615.314 1199.03 615.314C1199.03 615.314 1212.31 617.805 1215.05 624.467C1216.75 628.599 1215.05 635.908 1215.05 635.908C1215.05 635.908 1227.65 637.015 1234.5 633.62C1244.28 628.778 1240.88 615.835 1250.52 610.737C1260.4 605.518 1274.62 600.513 1279.12 610.737C1281.1 615.236 1279.36 618.414 1279.12 623.323C1276.55 676.303 1176.19 689.367 1202.46 735.448C1213.66 755.092 1248.23 770.917 1248.23 770.917Z" fill="url(#pattern2_7075_11950)"/>
</g>
<defs>
<clipPath id="clip0_7075_11950">
<rect width="1440" height="920" fill="white"/>
</clipPath>
<pattern id="pattern0_7075_11950" patternUnits="userSpaceOnUse" patternTransform="matrix(-161.117 0 0 55.9988 1289.41 770.926)" preserveAspectRatio="none" viewBox="0 0 1036.34 360.195" width="1" height="1">
<use xlink:href="#pattern0_7075_11950_inner" transform="translate(0 -360.195)"/>
<use xlink:href="#pattern0_7075_11950_inner" transform="translate(518.168 -180.097)"/>
<g id="pattern0_7075_11950_inner">
<path d="M64.7229 60.095H0V120.195H64.7229V60.095Z" fill="white"/>
<path d="M129.446 120.197H64.7227V180.296H129.446V120.197Z" fill="white"/>
<path d="M129.446 0.00170898H64.7227V60.1016H129.446V0.00170898Z" fill="white"/>
<path d="M194.168 60.095H129.445V120.195H194.168V60.095Z" fill="white"/>
<path d="M258.891 120.197H194.168V180.296H258.891V120.197Z" fill="white"/>
<path d="M258.891 0.00170898H194.168V60.1016H258.891V0.00170898Z" fill="white"/>
<path d="M453.445 60.0999H518.168V3.8147e-06H453.445V60.0999Z" fill="white"/>
<path d="M388.722 120.193H453.445V60.0933H388.722V120.193Z" fill="white"/>
<path d="M324 60.0999H388.723V3.8147e-06H324V60.0999Z" fill="white"/>
<path d="M453.445 180.296H518.168V120.196H453.445V180.296Z" fill="white"/>
<path d="M324 180.296H388.723V120.196H324V180.296Z" fill="white"/>
<path d="M259.277 120.193H324V60.0933H259.277V120.193Z" fill="white"/>
<path d="M64.7229 300.095H0V360.195H64.7229V300.095Z" fill="white"/>
<path d="M129.446 240.002H64.7227V300.102H129.446V240.002Z" fill="white"/>
<path d="M194.168 300.095H129.445V360.195H194.168V300.095Z" fill="white"/>
<path d="M64.7229 179.899H0V239.999H64.7229V179.899Z" fill="white"/>
<path d="M194.168 179.899H129.445V239.999H194.168V179.899Z" fill="white"/>
<path d="M258.891 240.002H194.168V300.102H258.891V240.002Z" fill="white"/>
<path d="M453.445 300.1H518.168V240H453.445V300.1Z" fill="white"/>
<path d="M388.722 239.998H453.445V179.898H388.722V239.998Z" fill="white"/>
<path d="M388.722 360.193H453.445V300.093H388.722V360.193Z" fill="white"/>
<path d="M324 300.1H388.723V240H324V300.1Z" fill="white"/>
<path d="M259.277 239.998H324V179.898H259.277V239.998Z" fill="white"/>
<path d="M259.277 360.193H324V300.093H259.277V360.193Z" fill="white"/>
</g>
<use xlink:href="#pattern0_7075_11950_inner" transform="translate(518.168 180.097)"/>
</pattern><pattern id="pattern1_7075_11950" patternUnits="userSpaceOnUse" patternTransform="matrix(161.117 0 0 55.9988 1289.41 770.926)" preserveAspectRatio="none" viewBox="0 0 1036.34 360.195" width="1" height="1">
<use xlink:href="#pattern1_7075_11950_inner" transform="translate(0 -360.195)"/>
<use xlink:href="#pattern1_7075_11950_inner" transform="translate(518.168 -180.097)"/>
<g id="pattern1_7075_11950_inner">
<path d="M64.7229 60.095H0V120.195H64.7229V60.095Z" fill="white"/>
<path d="M129.446 120.197H64.7227V180.296H129.446V120.197Z" fill="white"/>
<path d="M129.446 0.00170898H64.7227V60.1016H129.446V0.00170898Z" fill="white"/>
<path d="M194.168 60.095H129.445V120.195H194.168V60.095Z" fill="white"/>
<path d="M258.891 120.197H194.168V180.296H258.891V120.197Z" fill="white"/>
<path d="M258.891 0.00170898H194.168V60.1016H258.891V0.00170898Z" fill="white"/>
<path d="M453.445 60.0999H518.168V3.8147e-06H453.445V60.0999Z" fill="white"/>
<path d="M388.722 120.193H453.445V60.0933H388.722V120.193Z" fill="white"/>
<path d="M324 60.0999H388.723V3.8147e-06H324V60.0999Z" fill="white"/>
<path d="M453.445 180.296H518.168V120.196H453.445V180.296Z" fill="white"/>
<path d="M324 180.296H388.723V120.196H324V180.296Z" fill="white"/>
<path d="M259.277 120.193H324V60.0933H259.277V120.193Z" fill="white"/>
<path d="M64.7229 300.095H0V360.195H64.7229V300.095Z" fill="white"/>
<path d="M129.446 240.002H64.7227V300.102H129.446V240.002Z" fill="white"/>
<path d="M194.168 300.095H129.445V360.195H194.168V300.095Z" fill="white"/>
<path d="M64.7229 179.899H0V239.999H64.7229V179.899Z" fill="white"/>
<path d="M194.168 179.899H129.445V239.999H194.168V179.899Z" fill="white"/>
<path d="M258.891 240.002H194.168V300.102H258.891V240.002Z" fill="white"/>
<path d="M453.445 300.1H518.168V240H453.445V300.1Z" fill="white"/>
<path d="M388.722 239.998H453.445V179.898H388.722V239.998Z" fill="white"/>
<path d="M388.722 360.193H453.445V300.093H388.722V360.193Z" fill="white"/>
<path d="M324 300.1H388.723V240H324V300.1Z" fill="white"/>
<path d="M259.277 239.998H324V179.898H259.277V239.998Z" fill="white"/>
<path d="M259.277 360.193H324V300.093H259.277V360.193Z" fill="white"/>
</g>
<use xlink:href="#pattern1_7075_11950_inner" transform="translate(518.168 180.097)"/>
</pattern><pattern id="pattern2_7075_11950" patternUnits="userSpaceOnUse" patternTransform="matrix(-161.117 0 0 55.9988 1383.24 466.304)" preserveAspectRatio="none" viewBox="0 0 1036.34 360.195" width="1" height="1">
<use xlink:href="#pattern2_7075_11950_inner" transform="translate(0 -360.195)"/>
<use xlink:href="#pattern2_7075_11950_inner" transform="translate(518.168 -180.097)"/>
<g id="pattern2_7075_11950_inner">
<path d="M64.7229 60.095H0V120.195H64.7229V60.095Z" fill="white"/>
<path d="M129.446 120.197H64.7227V180.296H129.446V120.197Z" fill="white"/>
<path d="M129.446 0.00170898H64.7227V60.1016H129.446V0.00170898Z" fill="white"/>
<path d="M194.168 60.095H129.445V120.195H194.168V60.095Z" fill="white"/>
<path d="M258.891 120.197H194.168V180.296H258.891V120.197Z" fill="white"/>
<path d="M258.891 0.00170898H194.168V60.1016H258.891V0.00170898Z" fill="white"/>
<path d="M453.445 60.0999H518.168V3.8147e-06H453.445V60.0999Z" fill="white"/>
<path d="M388.722 120.193H453.445V60.0933H388.722V120.193Z" fill="white"/>
<path d="M324 60.0999H388.723V3.8147e-06H324V60.0999Z" fill="white"/>
<path d="M453.445 180.296H518.168V120.196H453.445V180.296Z" fill="white"/>
<path d="M324 180.296H388.723V120.196H324V180.296Z" fill="white"/>
<path d="M259.277 120.193H324V60.0933H259.277V120.193Z" fill="white"/>
<path d="M64.7229 300.095H0V360.195H64.7229V300.095Z" fill="white"/>
<path d="M129.446 240.002H64.7227V300.102H129.446V240.002Z" fill="white"/>
<path d="M194.168 300.095H129.445V360.195H194.168V300.095Z" fill="white"/>
<path d="M64.7229 179.899H0V239.999H64.7229V179.899Z" fill="white"/>
<path d="M194.168 179.899H129.445V239.999H194.168V179.899Z" fill="white"/>
<path d="M258.891 240.002H194.168V300.102H258.891V240.002Z" fill="white"/>
<path d="M453.445 300.1H518.168V240H453.445V300.1Z" fill="white"/>
<path d="M388.722 239.998H453.445V179.898H388.722V239.998Z" fill="white"/>
<path d="M388.722 360.193H453.445V300.093H388.722V360.193Z" fill="white"/>
<path d="M324 300.1H388.723V240H324V300.1Z" fill="white"/>
<path d="M259.277 239.998H324V179.898H259.277V239.998Z" fill="white"/>
<path d="M259.277 360.193H324V300.093H259.277V360.193Z" fill="white"/>
</g>
<use xlink:href="#pattern2_7075_11950_inner" transform="translate(518.168 180.097)"/>
</pattern></defs>
</svg>
