<svg width="1440" height="988" viewBox="0 0 1440 988" fill="none" xmlns="http://www.w3.org/2000/svg">
<path d="M1884.34 398.715L1772.72 281.158M1884.34 398.715L1959.03 -123.042L1875.31 -211.21M1884.34 398.715L914.326 608.693L841.667 543.051M1772.72 281.158L841.667 543.051M1772.72 281.158L1875.31 -211.21M841.667 543.051L1014.05 129.692L1051.97 114.684M1875.31 -211.21L1823.85 -190.842M1823.85 -190.842L1750.3 261.104L900.679 489.387L1051.97 114.684M1823.85 -190.842L1051.97 114.684" stroke="#1D1D1D" stroke-width="3"/>
<path d="M1489.06 -56.8134L1382.87 -15.5961L1357.67 71.6713L1460.04 30.3554L1489.06 -56.8134Z" fill="#1D1D1D"/>
<path d="M1297.94 16.6134L1209.09 52.5446L1176.25 139.615L1268.92 103.782L1297.94 16.6134Z" fill="#1D1D1D"/>
<path d="M1133.76 83.092L1050.78 113.441L1017.95 200.511L1101.02 166.342L1133.76 83.092Z" fill="#1D1D1D"/>
<path d="M1112.14 327.174L1021.43 361.146L980.65 459.479L1069.2 435.008L1112.14 327.174Z" fill="#1D1D1D"/>
<path d="M1293.26 270.691L1198.83 300.744L1159.72 408.676L1259.83 380.68L1293.26 270.691Z" fill="#1D1D1D"/>
<path d="M1233.92 200.352L1147.13 230.603L1112.13 327.173L1198.83 300.743L1233.92 200.352Z" fill="#1D1D1D"/>
<path d="M1357.67 71.6723L1268.92 103.784L1233.92 200.354L1328.55 162.661L1357.67 71.6723Z" fill="#1D1D1D"/>
<path d="M1058.38 262.715L981.288 287.482L942.472 383.954L1021.43 361.146L1058.38 262.715Z" fill="#1D1D1D"/>
<path d="M1176.25 139.615L1101.01 166.342L1058.38 262.715L1147.13 230.604L1176.25 139.615Z" fill="#1D1D1D"/>
<path d="M1430.72 128.984L1328.55 162.66L1293.26 270.69L1399.25 237.113L1430.72 128.984Z" fill="#1D1D1D"/>
<path d="M1508.96 207.455L1399.25 237.114L1363.76 352.785L1483.07 321.463L1508.96 207.455Z" fill="#1D1D1D"/>
<path d="M1570.05 -10.7642L1460.04 30.3544L1430.72 128.983L1534.85 93.4464L1570.05 -10.7642Z" fill="#1D1D1D"/>
<path d="M1919.96 -164.187L1836.07 343.953L887.09 583.929" stroke="#1D1D1D" stroke-width="3"/>
<path d="M-171.213 356.925L-71.8531 237.021M-171.213 356.925L-276.627 -138.277L-202.108 -228.205M-171.213 356.925L772.054 495.268L837.434 427.645M-71.8531 237.021L837.434 427.645M-71.8531 237.021L-202.108 -228.205M837.434 427.645L645.422 42.6652L608.11 30.7401M-202.108 -228.205L-151.469 -212.021M-151.469 -212.021L-51.6725 216.349L777.398 380.041L608.11 30.7401M-151.469 -212.021L608.11 30.7401" stroke="#1D1D1D" stroke-width="2.88173"/>
<path d="M26.8801 12.1047L143.942 41.6963L176.149 149.28L59.0869 119.689L26.8801 12.1047Z" fill="#1D1D1D"/>
<path d="M178.09 -105.28L282.532 -72.6629L312.341 9.33912L211.553 -23.6197L178.09 -105.28Z" fill="#1D1D1D"/>
<path d="M366.015 -47.3021L453.498 -18.6273L490.615 62.6903L399.478 34.3577L366.015 -47.3021Z" fill="#1D1D1D"/>
<path d="M527.675 5.76436L609.162 29.4705L646.279 110.788L564.45 83.4274L527.675 5.76436Z" fill="#1D1D1D"/>
<path d="M564.226 238.288L653.365 264.964L698.819 356.561L612.365 338.85L564.226 238.288Z" fill="#1D1D1D"/>
<path d="M386.977 195.898L479.427 218.578L523.911 319.482L426.15 299.143L386.977 195.898Z" fill="#1D1D1D"/>
<path d="M439.281 124.642L524.422 148.006L564.224 238.289L479.425 218.579L439.281 124.642Z" fill="#1D1D1D"/>
<path d="M312.34 9.33893L399.479 34.3591L439.281 124.642L346.145 94.6533L312.34 9.33893Z" fill="#1D1D1D"/>
<path d="M611.566 173.026L687.057 191.764L730.513 281.704L653.366 264.965L611.566 173.026Z" fill="#1D1D1D"/>
<path d="M490.616 62.6898L564.451 83.4258L611.562 173.024L524.422 148.004L490.616 62.6898Z" fill="#1D1D1D"/>
<path d="M246.04 69.004L346.142 94.6537L386.971 195.9L283.214 170.593L246.04 69.004Z" fill="#1D1D1D"/>
<path d="M176.146 149.282L283.215 170.593L324.729 279.149L208.352 256.867L176.146 149.282Z" fill="#1D1D1D"/>
<path d="M103.454 -55.8963L211.551 -23.6219L246.041 69.0016L143.94 41.6957L103.454 -55.8963Z" fill="#1D1D1D"/>
<path d="M-118.39 -121.757L-4.63975 -88.169L26.8817 12.1059L-91.8364 -15.4872L-118.39 -121.757Z" fill="#1D1D1D"/>
<path d="M-57.9753 90.0969L59.0868 119.688L91.6361 230.927L-25.426 201.336L-57.9753 90.0969Z" fill="#1D1D1D"/>
<path d="M-241.849 -180.244L-128.497 301.312L796.553 469.768" stroke="#1D1D1D" stroke-width="2.88173"/>
<path d="M743.984 611.02C748.322 618.652 743.984 633.499 743.984 633.499H716.293V564.107H722.809H728.021C728.021 564.107 729.596 568.163 728.021 569.646C726.539 571.041 722.809 569.646 722.809 569.646V589.193C722.809 589.193 725.565 591.203 726.392 593.102C727.408 595.435 726.392 599.618 726.392 599.618C726.392 599.618 739.939 603.902 743.984 611.02Z" fill="#1D1D1D"/>
<path d="M688.93 611.02C684.592 618.652 688.93 633.499 688.93 633.499H716.621V564.107H710.105H704.893C704.893 564.107 703.318 568.163 704.893 569.646C706.375 571.041 710.105 569.646 710.105 569.646V589.193C710.105 589.193 707.349 591.203 706.522 593.102C705.506 595.435 706.522 599.618 706.522 599.618C706.522 599.618 692.975 603.902 688.93 611.02Z" fill="#1D1D1D"/>
<ellipse cx="717.12" cy="549.054" rx="12.0539" ry="12.054" fill="#1D1D1D"/>
<path d="M867.729 84.1068C872.521 89.6768 871.349 102.57 871.349 102.57L848.605 107.029L837.43 50.0352L842.781 48.9858L847.062 48.1464C847.062 48.1464 849.009 51.2241 847.954 52.6952C846.962 54.0798 843.673 53.5347 843.673 53.5347L846.821 69.5893C846.821 69.5893 849.409 70.7968 850.394 72.2231C851.604 73.9755 851.443 77.5747 851.443 77.5747C851.443 77.5747 863.26 78.9121 867.729 84.1068Z" fill="#1D1D1D"/>
<path d="M822.506 92.9732C820.173 99.9403 826.126 111.436 826.126 111.436L848.87 106.976L837.695 49.9824L832.344 51.0317L828.063 51.8712C828.063 51.8712 827.422 55.4562 828.954 56.42C830.397 57.3272 833.236 55.5806 833.236 55.5806L836.384 71.6352C836.384 71.6352 834.443 73.7306 834.07 75.4233C833.611 77.5029 835.119 80.7748 835.119 80.7748C835.119 80.7748 824.683 86.4756 822.506 92.9732Z" fill="#1D1D1D"/>
<ellipse cx="835.681" cy="37.5373" rx="10.0889" ry="10.0889" transform="rotate(-11.0936 835.681 37.5373)" fill="#1D1D1D"/>
<path d="M1402.98 654.02C1407.32 661.652 1402.98 676.499 1402.98 676.499H1375.29V607.107H1381.81H1387.02C1387.02 607.107 1388.6 611.163 1387.02 612.646C1385.54 614.041 1381.81 612.646 1381.81 612.646V632.193C1381.81 632.193 1384.56 634.203 1385.39 636.102C1386.41 638.435 1385.39 642.618 1385.39 642.618C1385.39 642.618 1398.94 646.902 1402.98 654.02Z" fill="#1D1D1D"/>
<path d="M1347.93 654.02C1343.59 661.652 1347.93 676.499 1347.93 676.499H1375.62V607.107H1369.11H1363.89C1363.89 607.107 1362.32 611.163 1363.89 612.646C1365.38 614.041 1369.11 612.646 1369.11 612.646V632.193C1369.11 632.193 1366.35 634.203 1365.52 636.102C1364.51 638.435 1365.52 642.618 1365.52 642.618C1365.52 642.618 1351.98 646.902 1347.93 654.02Z" fill="#1D1D1D"/>
<ellipse cx="1376.12" cy="592.054" rx="12.0539" ry="12.054" fill="#1D1D1D"/>
<path d="M954.876 135.079C957.471 145.98 944.191 161.709 944.191 161.709L915.876 150.347L958.887 43.1543L964.617 45.4536L961.642 52.8695L968.046 55.4393L971.022 48.0234L976.078 50.0522C976.078 50.0522 974.247 60.7321 969.856 65.5581C966.114 69.6712 957.574 72.7617 957.574 72.7617L947.134 122.188C947.134 122.188 953.517 129.366 954.876 135.079Z" fill="#1D1D1D"/>
<path d="M898.246 112.356C888.837 118.441 887.561 138.986 887.561 138.986L915.876 150.347L958.887 43.1543L953.156 40.855L950.181 48.2709L943.776 45.7011L946.752 38.2852L941.695 36.2564C941.695 36.2564 935.636 45.2396 935.474 51.7623C935.335 57.3214 939.371 65.458 939.371 65.458L912.751 108.393C912.751 108.393 903.177 109.168 898.246 112.356Z" fill="#1D1D1D"/>
<circle cx="774.478" cy="144.255" r="7.5" transform="rotate(-36.9282 774.478 144.255)" fill="#1D1D1D"/>
<path d="M901.275 242.227C908.959 247.927 915.994 261.812 915.994 261.812L882.42 287.046L777.578 147.553L781.575 144.549C781.575 144.549 803.272 151.009 810.893 161.919C816.338 169.715 818.316 185.111 818.316 185.111C818.316 185.111 839.419 183.648 837.122 190.992C835.782 195.278 827.929 197.902 827.929 197.902L862.563 230.666C862.563 230.666 864.016 228.809 865.361 228.563C868.05 228.072 869.566 234.159 869.566 234.159C869.566 234.159 891.013 234.614 901.275 242.227Z" fill="#1D1D1D"/>
<path d="M834.294 292.57C837.633 301.537 849.014 312.155 849.014 312.155L882.588 286.921L777.746 147.428L773.749 150.432C773.749 150.432 773.922 173.07 782.283 183.423C788.258 190.822 802.497 197.003 802.497 197.003C802.497 197.003 795.223 216.866 802.917 216.702C807.407 216.606 812.11 209.793 812.11 209.793L833.953 252.171C833.953 252.171 831.765 253.05 831.155 254.273C829.935 256.72 835.361 259.869 835.361 259.869C835.361 259.869 829.835 280.596 834.294 292.57Z" fill="#1D1D1D"/>
</svg>
