<svg width="1440" height="850" viewBox="0 0 1440 850" fill="none" xmlns="http://www.w3.org/2000/svg">
<path d="M1405 87V762.5H36V87H1405Z" stroke="#1D1D1D" stroke-width="2"/>
<path d="M36 218H191.5M1406 218H1023.55M707.536 218V354.5M707.536 218H1023.55M707.536 218H191.5M1023.55 218V354.5M191.5 218V354.5M36 354.5H1406" stroke="#1D1D1D" stroke-width="2"/>
<path d="M36.2902 355H191.5M1406 355H1023.55M707.535 355V491.5M707.535 355H1023.55M707.535 355H191.5M1023.55 355V763M191.5 355V625M35 491.5H1397.5H1406" stroke="#1D1D1D" stroke-width="2"/>
<path d="M35 492H191.5M1406 492H1026H707.5M707.5 492V762.5M707.5 492H191.5M191.5 492V762M35 628.5H1397.5H1406" stroke="#1D1D1D" stroke-width="2"/>
<rect x="815" y="269" width="43" height="43" stroke="#1D1D1D" stroke-width="2"/>
<rect x="895" y="269" width="43" height="43" fill="#1D1D1D" stroke="#1D1D1D" stroke-width="2"/>
<rect x="815" y="403" width="43" height="43" stroke="#1D1D1D" stroke-width="2"/>
<rect x="895" y="403" width="43" height="43" fill="#1D1D1D" stroke="#1D1D1D" stroke-width="2"/>
<rect x="815" y="542" width="43" height="43" stroke="#1D1D1D" stroke-width="2"/>
<rect x="895" y="542" width="43" height="43" fill="#1D1D1D" stroke="#1D1D1D" stroke-width="2"/>
<rect x="815" y="678" width="43" height="43" stroke="#1D1D1D" stroke-width="2"/>
<rect x="895" y="678" width="43" height="43" fill="#1D1D1D" stroke="#1D1D1D" stroke-width="2"/>
</svg>
