<svg width="1446" height="541" viewBox="0 0 1446 541" fill="none" xmlns="http://www.w3.org/2000/svg" xmlns:xlink="http://www.w3.org/1999/xlink">
<path d="M302.155 169H784M243 103H784" stroke="#1D1D1D" stroke-width="3.09064"/>
<path d="M751.425 366.624V431.808H707.798C692.058 431.808 678.371 429.242 666.737 424.109C655.446 418.634 646.892 410.936 641.075 401.013C615.07 425.649 578.115 437.967 530.211 437.967C493.941 437.967 465.712 431.124 445.524 417.437C425.336 403.75 415.242 384.588 415.242 359.952C415.242 339.08 422.77 322.485 437.825 310.166C452.881 297.506 474.78 289.636 503.522 286.557L630.296 272.699C626.19 247.378 603.265 234.718 561.52 234.718C539.621 234.718 522.513 237.797 510.194 243.956C498.219 249.773 492.231 257.985 492.231 268.593V270.132H417.295V268.593C417.295 248.405 423.112 230.783 434.746 215.727C446.722 200.672 463.659 189.038 485.558 180.826C507.457 172.614 532.949 168.508 562.033 168.508C607.2 168.508 642.272 178.602 667.251 198.79C692.571 218.978 705.232 246.865 705.232 282.451V346.094C705.232 359.781 713.102 366.624 728.841 366.624H751.425ZM535.344 378.429C557.243 378.429 576.576 375.179 593.342 368.678C610.45 361.834 622.94 352.767 630.81 341.475V324.024L523.026 336.342C511.734 337.711 503.351 340.106 497.876 343.528C492.402 346.95 489.664 351.74 489.664 357.899C489.664 371.586 504.891 378.429 535.344 378.429Z" fill="white"/>
<path d="M751.425 366.624V431.808H707.798C692.058 431.808 678.371 429.242 666.737 424.109C655.446 418.634 646.892 410.936 641.075 401.013C615.07 425.649 578.115 437.967 530.211 437.967C493.941 437.967 465.712 431.124 445.524 417.437C425.336 403.75 415.242 384.588 415.242 359.952C415.242 339.08 422.77 322.485 437.825 310.166C452.881 297.506 474.78 289.636 503.522 286.557L630.296 272.699C626.19 247.378 603.265 234.718 561.52 234.718C539.621 234.718 522.513 237.797 510.194 243.956C498.219 249.773 492.231 257.985 492.231 268.593V270.132H417.295V268.593C417.295 248.405 423.112 230.783 434.746 215.727C446.722 200.672 463.659 189.038 485.558 180.826C507.457 172.614 532.949 168.508 562.033 168.508C607.2 168.508 642.272 178.602 667.251 198.79C692.571 218.978 705.232 246.865 705.232 282.451V346.094C705.232 359.781 713.102 366.624 728.841 366.624H751.425ZM535.344 378.429C557.243 378.429 576.576 375.179 593.342 368.678C610.45 361.834 622.94 352.767 630.81 341.475V324.024L523.026 336.342C511.734 337.711 503.351 340.106 497.876 343.528C492.402 346.95 489.664 351.74 489.664 357.899C489.664 371.586 504.891 378.429 535.344 378.429Z" fill="url(#pattern0_7045_9114)"/>
<path d="M429.275 425.819V437.623H352.286L321.491 367.821H153.143L122.348 437.623H45.3594V425.819L194.717 100.928H279.917L429.275 425.819ZM292.235 301.097L237.317 175.863L182.399 301.097H292.235Z" fill="white"/>
<path d="M429.275 425.819V437.623H352.286L321.491 367.821H153.143L122.348 437.623H45.3594V425.819L194.717 100.928H279.917L429.275 425.819ZM292.235 301.097L237.317 175.863L182.399 301.097H292.235Z" fill="url(#pattern1_7045_9114)"/>
<path d="M435.811 103.924C435.225 103.338 434.275 103.338 433.689 103.924L424.143 113.47C423.558 114.055 423.558 115.005 424.143 115.591C424.729 116.177 425.679 116.177 426.265 115.591L434.75 107.106L443.235 115.591C443.821 116.177 444.771 116.177 445.357 115.591C445.942 115.005 445.942 114.055 445.357 113.47L435.811 103.924ZM433.689 170.068C434.275 170.654 435.225 170.654 435.811 170.068L445.357 160.523C445.942 159.937 445.942 158.987 445.357 158.401C444.771 157.815 443.821 157.815 443.235 158.401L434.75 166.886L426.265 158.401C425.679 157.815 424.729 157.815 424.143 158.401C423.558 158.987 423.558 159.937 424.143 160.523L433.689 170.068ZM434.75 104.984H433.25V169.008H434.75H436.25V104.984H434.75Z" fill="#1D1D1D"/>
<ellipse cx="122.895" cy="79.9815" rx="14.9814" ry="14.9815" fill="#1D1D1D"/>
<path d="M207.79 388.6C213.219 406.925 207.79 437.54 207.79 437.54H123.895V88.9707H133.882C133.882 88.9707 160.775 125.326 159.85 151.893C159.189 170.878 143.87 197.836 143.87 197.836C143.87 197.836 179.322 220.826 166.841 229.797C159.557 235.032 143.87 229.797 143.87 229.797L159.85 323.68C159.85 323.68 164.399 322.459 166.841 323.68C171.725 326.122 166.841 337.663 166.841 337.663C166.841 337.663 200.54 364.128 207.79 388.6Z" fill="#1D1D1D"/>
<path d="M40.4129 388.6C34.9839 406.925 40.4129 437.54 40.4129 437.54H124.309V88.9707H114.321C114.321 88.9707 87.4279 125.326 88.3533 151.893C89.0146 170.878 104.333 197.836 104.333 197.836C104.333 197.836 68.8807 220.826 81.362 229.797C88.6465 235.032 104.333 229.797 104.333 229.797L88.3533 323.68C88.3533 323.68 83.804 322.459 81.362 323.68C76.4779 326.122 81.362 337.663 81.362 337.663C81.362 337.663 47.6631 364.128 40.4129 388.6Z" fill="#1D1D1D"/>
<path d="M773.211 382.559C783.985 401.516 773.211 438.395 773.211 438.395H704.426V266.031H720.61H733.558C733.558 266.031 737.47 276.106 733.558 279.788C729.876 283.253 720.61 279.788 720.61 279.788V328.341C720.61 328.341 727.457 333.335 729.512 338.052C732.036 343.846 729.512 354.236 729.512 354.236C729.512 354.236 763.162 364.879 773.211 382.559Z" fill="#1D1D1D"/>
<path d="M636.453 382.559C625.679 401.516 636.453 438.395 636.453 438.395H705.238V266.031H689.054H676.106C676.106 266.031 672.194 276.106 676.106 279.788C679.788 283.253 689.054 279.788 689.054 279.788V328.341C689.054 328.341 682.207 333.335 680.152 338.052C677.628 343.846 680.152 354.236 680.152 354.236C680.152 354.236 646.502 364.879 636.453 382.559Z" fill="#1D1D1D"/>
<ellipse cx="705.239" cy="236.091" rx="29.9417" ry="29.9411" fill="#1D1D1D"/>
<rect x="112" y="96" width="26" height="341" fill="#1D1D1D"/>
<rect x="682" y="352" width="47" height="9" fill="#1D1D1D"/>
<rect x="694" y="267" width="22" height="171" fill="#1D1D1D"/>
<defs>
<pattern id="pattern0_7045_9114" patternUnits="userSpaceOnUse" patternTransform="matrix(54.4842 0 0 126.447 556.091 168.508)" preserveAspectRatio="none" viewBox="0 0.00195312 199.039 461.929" width="1" height="1">
<use xlink:href="#pattern0_7045_9114_inner" transform="translate(-199.039 0)"/>
<g id="pattern0_7045_9114_inner">
<path d="M34.6559 67.0527H0V99.2332H34.6559V67.0527Z" fill="#1D1D1D"/>
<path d="M67.7497 99.5312H33.0938V131.712H67.7497V99.5312Z" fill="#1D1D1D"/>
<path d="M34.6559 1.07617H0V33.2567H34.6559V1.07617Z" fill="#1D1D1D"/>
<path d="M66.7262 34.5742H32.0703V66.7547H66.7262V34.5742Z" fill="#1D1D1D"/>
<path d="M100.484 67.0527H65.8281V99.2332H100.484V67.0527Z" fill="#1D1D1D"/>
<path d="M100.484 1.07617H65.8281V33.2567H100.484V1.07617Z" fill="#1D1D1D"/>
<path d="M164.383 66.4727H199.039V34.2922H164.383V66.4727Z" fill="#1D1D1D"/>
<path d="M131.289 32.1816H165.945V0.00115585H131.289V32.1816Z" fill="#1D1D1D"/>
<path d="M131.289 98.9531H165.945V66.7726H131.289V98.9531Z" fill="#1D1D1D"/>
<path d="M98.555 66.4727H133.211V34.2922H98.555V66.4727Z" fill="#1D1D1D"/>
<path d="M34.6559 197.988H0V230.169H34.6559V197.988Z" fill="#1D1D1D"/>
<path d="M67.7497 165.508H33.0938V197.688H67.7497V165.508Z" fill="#1D1D1D"/>
<path d="M101.507 198.783H66.8516V230.964H101.507V198.783Z" fill="#1D1D1D"/>
<path d="M34.6559 133.027H0V165.208H34.6559V133.027Z" fill="#1D1D1D"/>
<path d="M101.507 133.027H66.8516V165.208H101.507V133.027Z" fill="#1D1D1D"/>
<path d="M134.242 165.508H99.5859V197.688H134.242V165.508Z" fill="#1D1D1D"/>
<path d="M164.383 197.41H199.039V165.23H164.383V197.41Z" fill="#1D1D1D"/>
<path d="M164.383 131.434H199.039V99.2531H164.383V131.434Z" fill="#1D1D1D"/>
<path d="M132.309 164.93H166.965V132.749H132.309V164.93Z" fill="#1D1D1D"/>
<path d="M98.555 131.436H133.211V99.2551H98.555V131.436Z" fill="#1D1D1D"/>
<path d="M132.309 229.891H166.965V197.71H132.309V229.891Z" fill="#1D1D1D"/>
</g>
<use xlink:href="#pattern0_7045_9114_inner" transform="translate(-99.5195 230.964)"/>
<use xlink:href="#pattern0_7045_9114_inner" transform="translate(99.5195 230.964)"/>
</pattern><pattern id="pattern1_7045_9114" patternUnits="userSpaceOnUse" patternTransform="matrix(54.4842 0 0 126.447 210.075 100.928)" preserveAspectRatio="none" viewBox="0 0.00195312 199.039 461.929" width="1" height="1">
<use xlink:href="#pattern1_7045_9114_inner" transform="translate(-199.039 0)"/>
<g id="pattern1_7045_9114_inner">
<path d="M34.6559 67.0527H0V99.2332H34.6559V67.0527Z" fill="#1D1D1D"/>
<path d="M67.7497 99.5312H33.0938V131.712H67.7497V99.5312Z" fill="#1D1D1D"/>
<path d="M34.6559 1.07617H0V33.2567H34.6559V1.07617Z" fill="#1D1D1D"/>
<path d="M66.7262 34.5742H32.0703V66.7547H66.7262V34.5742Z" fill="#1D1D1D"/>
<path d="M100.484 67.0527H65.8281V99.2332H100.484V67.0527Z" fill="#1D1D1D"/>
<path d="M100.484 1.07617H65.8281V33.2567H100.484V1.07617Z" fill="#1D1D1D"/>
<path d="M164.383 66.4727H199.039V34.2922H164.383V66.4727Z" fill="#1D1D1D"/>
<path d="M131.289 32.1816H165.945V0.00115585H131.289V32.1816Z" fill="#1D1D1D"/>
<path d="M131.289 98.9531H165.945V66.7726H131.289V98.9531Z" fill="#1D1D1D"/>
<path d="M98.555 66.4727H133.211V34.2922H98.555V66.4727Z" fill="#1D1D1D"/>
<path d="M34.6559 197.988H0V230.169H34.6559V197.988Z" fill="#1D1D1D"/>
<path d="M67.7497 165.508H33.0938V197.688H67.7497V165.508Z" fill="#1D1D1D"/>
<path d="M101.507 198.783H66.8516V230.964H101.507V198.783Z" fill="#1D1D1D"/>
<path d="M34.6559 133.027H0V165.208H34.6559V133.027Z" fill="#1D1D1D"/>
<path d="M101.507 133.027H66.8516V165.208H101.507V133.027Z" fill="#1D1D1D"/>
<path d="M134.242 165.508H99.5859V197.688H134.242V165.508Z" fill="#1D1D1D"/>
<path d="M164.383 197.41H199.039V165.23H164.383V197.41Z" fill="#1D1D1D"/>
<path d="M164.383 131.434H199.039V99.2531H164.383V131.434Z" fill="#1D1D1D"/>
<path d="M132.309 164.93H166.965V132.749H132.309V164.93Z" fill="#1D1D1D"/>
<path d="M98.555 131.436H133.211V99.2551H98.555V131.436Z" fill="#1D1D1D"/>
<path d="M132.309 229.891H166.965V197.71H132.309V229.891Z" fill="#1D1D1D"/>
</g>
<use xlink:href="#pattern1_7045_9114_inner" transform="translate(-99.5195 230.964)"/>
<use xlink:href="#pattern1_7045_9114_inner" transform="translate(99.5195 230.964)"/>
</pattern></defs>
</svg>
