<svg width="1440" height="951" viewBox="0 0 1440 951" fill="none" xmlns="http://www.w3.org/2000/svg">
<g clip-path="url(#clip0_7111_12676)">
<path d="M187.82 155.91C195.598 166.835 187.939 190.251 187.939 190.251L151.423 190.378L150.945 52.1406L158.335 52.1151L158.368 61.6786L166.628 61.6501L166.595 52.0865L173.115 52.0639C173.115 52.0639 175.886 64.7334 173.185 72.0605C170.882 78.3052 162.798 85.5725 162.798 85.5725L173.437 145.091C173.437 145.091 183.744 150.184 187.82 155.91Z" fill="#1D1D1D"/>
<path d="M114.789 156.162C107.087 167.141 114.908 190.504 114.908 190.504L151.423 190.378L150.945 52.1406L143.555 52.1662L143.588 61.7298L135.329 61.7583L135.296 52.1947L128.775 52.2173C128.775 52.2173 126.093 64.9056 128.844 72.2139C131.19 78.4425 139.324 85.6537 139.324 85.6537L129.097 145.245C129.097 145.245 118.826 150.408 114.789 156.162Z" fill="#1D1D1D"/>
<rect width="1484" height="710" transform="matrix(-1 0 0 1 1462 190)" fill="#1D1D1D"/>
<circle cx="422.5" cy="526.5" r="168" stroke="#B20000"/>
<rect x="85" y="241" width="1241" height="596" fill="white" stroke="#1D1D1D" stroke-width="2"/>
<path d="M422.5 275.5C563.328 275.5 677.5 389.887 677.5 531C677.5 672.113 563.328 786.5 422.5 786.5C281.672 786.5 167.5 672.113 167.5 531C167.5 389.887 281.672 275.5 422.5 275.5Z" fill="#1D1D1D" stroke="white" stroke-width="5"/>
<circle cx="422.5" cy="530.5" r="235.5" fill="white"/>
<path d="M373 460L339.75 465.833H335L338.562 474L373 460Z" fill="#1D1D1D"/>
<path d="M340.118 670.163C358.122 617.357 405.743 543.266 405.743 543.266L420.711 549.034L428.77 545.574C428.77 545.574 429.052 585.189 425.316 610.176C422.794 627.041 416.105 652.859 416.105 652.859C416.105 652.859 407.507 627.238 405.743 610.176C404.398 597.156 405.743 576.66 405.743 576.66C405.743 576.66 376.467 634.56 355.086 670.163C344.667 687.511 327.454 714 327.454 714C327.454 714 334.368 687.029 340.118 670.163Z" fill="#1D1D1D"/>
<circle cx="257" cy="257" r="256" transform="matrix(-1 0 0 1 1258 280)" stroke="#1D1D1D" stroke-width="2"/>
<circle cx="1000.5" cy="536.5" r="234.5" fill="white" stroke="#1D1D1D" stroke-width="2"/>
<path d="M1052 462L1085.25 467.833H1090L1086.44 476L1052 462Z" fill="#1D1D1D"/>
<path d="M875.495 516.18C928.369 534.006 1016.16 541.233 1016.16 541.233L1020.71 525.828L1024.54 523.678L1009.45 474.404C1003.56 455.161 987.5 431.5 987.5 431.5C987.5 431.5 988.127 459.258 992.152 477.864C996.396 497.48 1010.6 525.828 1010.6 525.828C1010.6 525.828 934.212 509.943 884.62 504.284C864.508 501.989 833.002 499.572 833.002 499.572C833.002 499.572 858.612 510.488 875.495 516.18Z" fill="#1D1D1D"/>
<path d="M497.827 677.036C496.008 678.15 494.2 678.506 492.403 678.105C490.607 677.704 489.163 676.611 488.072 674.828C487.003 673.081 486.698 671.317 487.158 669.535C487.618 667.752 488.758 666.304 490.577 665.191C492.397 664.077 494.205 663.721 496.001 664.122C497.798 664.524 499.23 665.598 500.299 667.345C501.391 669.128 501.706 670.91 501.247 672.693C500.787 674.475 499.647 675.923 497.827 677.036Z" fill="#1D1D1D"/>
<path d="M411.039 693.794C408.937 693.425 407.346 692.496 406.265 691.006C405.184 689.517 404.824 687.742 405.185 685.683C405.54 683.666 406.479 682.142 408.003 681.11C409.527 680.078 411.34 679.746 413.441 680.115C415.542 680.484 417.133 681.413 418.215 682.903C419.296 684.392 419.659 686.146 419.305 688.163C418.944 690.222 418.001 691.768 416.477 692.8C414.952 693.831 413.14 694.163 411.039 693.794Z" fill="#1D1D1D"/>
<path d="M275.908 618.983C274.949 617.077 274.745 615.246 275.294 613.489C275.843 611.732 277.051 610.384 278.919 609.445C280.749 608.525 282.533 608.368 284.27 608.974C286.008 609.581 287.356 610.837 288.315 612.743C289.273 614.649 289.478 616.48 288.929 618.237C288.38 619.994 287.19 621.332 285.361 622.252C283.493 623.192 281.69 623.358 279.952 622.752C278.215 622.145 276.866 620.889 275.908 618.983Z" fill="#1D1D1D"/>
<path d="M254.006 533.171C254.186 531.045 254.97 529.378 256.358 528.168C257.745 526.958 259.48 526.442 261.563 526.619C263.604 526.792 265.206 527.592 266.37 529.018C267.533 530.444 268.025 532.22 267.844 534.346C267.664 536.472 266.88 538.139 265.493 539.349C264.105 540.558 262.391 541.077 260.351 540.903C258.267 540.727 256.644 539.925 255.481 538.499C254.317 537.073 253.826 535.297 254.006 533.171Z" fill="#1D1D1D"/>
<path d="M330.688 400.832C328.555 400.832 326.827 400.192 325.504 398.912C324.181 397.632 323.52 395.947 323.52 393.856C323.52 391.808 324.181 390.144 325.504 388.864C326.827 387.584 328.555 386.944 330.688 386.944C332.821 386.944 334.549 387.584 335.872 388.864C337.195 390.144 337.856 391.808 337.856 393.856C337.856 395.947 337.195 397.632 335.872 398.912C334.549 400.192 332.821 400.832 330.688 400.832Z" fill="#1D1D1D"/>
<path d="M561.922 458.97C560.964 457.064 560.759 455.233 561.309 453.476C561.859 451.72 563.068 450.372 564.936 449.433C566.765 448.513 568.549 448.357 570.287 448.964C572.025 449.571 573.372 450.827 574.33 452.733C575.289 454.64 575.493 456.471 574.943 458.228C574.393 459.984 573.204 461.322 571.374 462.242C569.506 463.181 567.703 463.347 565.965 462.74C564.228 462.133 562.88 460.876 561.922 458.97Z" fill="#1D1D1D"/>
<path d="M575.737 541.516C575.634 539.385 576.19 537.628 577.404 536.245C578.619 534.862 580.271 534.12 582.359 534.019C584.404 533.921 586.098 534.501 587.441 535.76C588.783 537.019 589.506 538.715 589.609 540.845C589.712 542.976 589.156 544.733 587.941 546.116C586.727 547.499 585.097 548.24 583.051 548.339C580.963 548.44 579.247 547.861 577.905 546.601C576.563 545.342 575.84 543.647 575.737 541.516Z" fill="#1D1D1D"/>
<path d="M548.221 616.28C549.177 614.373 550.523 613.115 552.26 612.506C553.997 611.897 555.8 612.061 557.669 612.998C559.5 613.916 560.691 615.252 561.243 617.008C561.795 618.764 561.592 620.596 560.637 622.503C559.681 624.41 558.334 625.668 556.597 626.277C554.86 626.886 553.076 626.732 551.246 625.814C549.376 624.878 548.166 623.531 547.614 621.775C547.063 620.019 547.265 618.188 548.221 616.28Z" fill="#1D1D1D"/>
<path d="M418.856 372.408C417.003 371.352 415.818 369.94 415.303 368.173C414.787 366.406 415.047 364.615 416.082 362.798C417.096 361.019 418.494 359.9 420.277 359.443C422.06 358.986 423.878 359.285 425.732 360.341C427.585 361.397 428.77 362.809 429.285 364.576C429.801 366.343 429.552 368.116 428.538 369.895C427.503 371.712 426.094 372.849 424.311 373.306C422.528 373.763 420.71 373.464 418.856 372.408Z" fill="#1D1D1D"/>
<path d="M512.856 401.408C511.003 400.352 509.818 398.94 509.303 397.173C508.787 395.406 509.047 393.615 510.082 391.798C511.096 390.019 512.494 388.9 514.277 388.443C516.06 387.986 517.878 388.285 519.732 389.341C521.585 390.397 522.77 391.809 523.285 393.576C523.801 395.343 523.552 397.116 522.538 398.895C521.503 400.712 520.094 401.849 518.311 402.306C516.528 402.763 514.71 402.464 512.856 401.408Z" fill="#1D1D1D"/>
<path d="M271.599 451.943C272.765 450.157 274.246 449.06 276.041 448.652C277.836 448.244 279.608 448.612 281.359 449.755C283.074 450.875 284.105 452.338 284.454 454.145C284.803 455.953 284.394 457.749 283.227 459.536C282.061 461.322 280.581 462.419 278.786 462.827C276.991 463.234 275.236 462.878 273.521 461.759C271.771 460.616 270.721 459.14 270.372 457.333C270.024 455.526 270.433 453.729 271.599 451.943Z" fill="#1D1D1D"/>
<path d="M1080.83 673.036C1079.01 674.15 1077.2 674.506 1075.4 674.105C1073.61 673.704 1072.16 672.611 1071.07 670.828C1070 669.081 1069.7 667.317 1070.16 665.535C1070.62 663.752 1071.76 662.304 1073.58 661.191C1075.4 660.077 1077.21 659.721 1079 660.122C1080.8 660.524 1082.23 661.598 1083.3 663.345C1084.39 665.128 1084.71 666.91 1084.25 668.693C1083.79 670.475 1082.65 671.923 1080.83 673.036Z" fill="#1D1D1D"/>
<path d="M916.827 671.036C915.008 672.15 913.2 672.506 911.403 672.105C909.607 671.704 908.163 670.611 907.072 668.828C906.003 667.081 905.698 665.317 906.158 663.535C906.618 661.752 907.758 660.304 909.577 659.191C911.397 658.077 913.205 657.721 915.001 658.122C916.798 658.524 918.23 659.598 919.299 661.345C920.391 663.128 920.706 664.91 920.247 666.693C919.787 668.475 918.647 669.923 916.827 671.036Z" fill="#1D1D1D"/>
<path d="M996.039 693.794C993.937 693.425 992.346 692.496 991.265 691.006C990.184 689.517 989.824 687.742 990.185 685.683C990.54 683.666 991.479 682.142 993.003 681.11C994.527 680.078 996.34 679.746 998.441 680.115C1000.54 680.484 1002.13 681.413 1003.21 682.903C1004.3 684.392 1004.66 686.146 1004.31 688.163C1003.94 690.222 1003 691.768 1001.48 692.8C999.952 693.831 998.14 694.163 996.039 693.794Z" fill="#1D1D1D"/>
<path d="M855.908 618.983C854.949 617.077 854.745 615.246 855.294 613.489C855.843 611.732 857.051 610.384 858.919 609.445C860.749 608.525 862.533 608.368 864.27 608.974C866.008 609.581 867.356 610.837 868.315 612.743C869.273 614.649 869.478 616.48 868.929 618.237C868.38 619.994 867.19 621.332 865.361 622.252C863.493 623.192 861.69 623.358 859.952 622.752C858.215 622.145 856.866 620.889 855.908 618.983Z" fill="#1D1D1D"/>
<path d="M834.006 533.171C834.186 531.045 834.97 529.378 836.358 528.168C837.745 526.958 839.48 526.442 841.563 526.619C843.604 526.792 845.206 527.592 846.37 529.018C847.533 530.444 848.025 532.22 847.844 534.346C847.664 536.472 846.88 538.139 845.493 539.349C844.105 540.558 842.391 541.077 840.351 540.903C838.267 540.727 836.644 539.925 835.481 538.499C834.317 537.073 833.826 535.297 834.006 533.171Z" fill="#1D1D1D"/>
<path d="M910.688 400.832C908.555 400.832 906.827 400.192 905.504 398.912C904.181 397.632 903.52 395.947 903.52 393.856C903.52 391.808 904.181 390.144 905.504 388.864C906.827 387.584 908.555 386.944 910.688 386.944C912.821 386.944 914.549 387.584 915.872 388.864C917.195 390.144 917.856 391.808 917.856 393.856C917.856 395.947 917.195 397.632 915.872 398.912C914.549 400.192 912.821 400.832 910.688 400.832Z" fill="#1D1D1D"/>
<path d="M1141.92 458.97C1140.96 457.064 1140.76 455.233 1141.31 453.476C1141.86 451.72 1143.07 450.372 1144.94 449.433C1146.77 448.513 1148.55 448.357 1150.29 448.964C1152.02 449.571 1153.37 450.827 1154.33 452.733C1155.29 454.64 1155.49 456.471 1154.94 458.228C1154.39 459.984 1153.2 461.322 1151.37 462.242C1149.51 463.181 1147.7 463.347 1145.97 462.74C1144.23 462.133 1142.88 460.876 1141.92 458.97Z" fill="#1D1D1D"/>
<path d="M1155.74 541.516C1155.63 539.385 1156.19 537.628 1157.4 536.245C1158.62 534.862 1160.27 534.12 1162.36 534.019C1164.4 533.921 1166.1 534.501 1167.44 535.76C1168.78 537.019 1169.51 538.715 1169.61 540.845C1169.71 542.976 1169.16 544.733 1167.94 546.116C1166.73 547.499 1165.1 548.24 1163.05 548.339C1160.96 548.44 1159.25 547.861 1157.91 546.601C1156.56 545.342 1155.84 543.647 1155.74 541.516Z" fill="#1D1D1D"/>
<path d="M1128.22 616.28C1129.18 614.373 1130.52 613.115 1132.26 612.506C1134 611.897 1135.8 612.061 1137.67 612.998C1139.5 613.916 1140.69 615.252 1141.24 617.008C1141.79 618.764 1141.59 620.596 1140.64 622.503C1139.68 624.41 1138.33 625.668 1136.6 626.277C1134.86 626.886 1133.08 626.732 1131.25 625.814C1129.38 624.878 1128.17 623.531 1127.61 621.775C1127.06 620.019 1127.26 618.188 1128.22 616.28Z" fill="#1D1D1D"/>
<path d="M998.856 372.408C997.003 371.352 995.818 369.94 995.303 368.173C994.787 366.406 995.047 364.615 996.082 362.798C997.096 361.019 998.494 359.9 1000.28 359.443C1002.06 358.986 1003.88 359.285 1005.73 360.341C1007.59 361.397 1008.77 362.809 1009.29 364.576C1009.8 366.343 1009.55 368.116 1008.54 369.895C1007.5 371.712 1006.09 372.849 1004.31 373.306C1002.53 373.763 1000.71 373.464 998.856 372.408Z" fill="#1D1D1D"/>
<path d="M1092.86 401.408C1091 400.352 1089.82 398.94 1089.3 397.173C1088.79 395.406 1089.05 393.615 1090.08 391.798C1091.1 390.019 1092.49 388.9 1094.28 388.443C1096.06 387.986 1097.88 388.285 1099.73 389.341C1101.59 390.397 1102.77 391.809 1103.29 393.576C1103.8 395.343 1103.55 397.116 1102.54 398.895C1101.5 400.712 1100.09 401.849 1098.31 402.306C1096.53 402.763 1094.71 402.464 1092.86 401.408Z" fill="#1D1D1D"/>
<path d="M851.599 451.943C852.765 450.157 854.246 449.06 856.041 448.652C857.836 448.244 859.608 448.612 861.359 449.755C863.074 450.875 864.105 452.338 864.454 454.145C864.803 455.953 864.394 457.749 863.227 459.536C862.061 461.322 860.581 462.419 858.786 462.827C856.991 463.234 855.236 462.878 853.521 461.759C851.771 460.616 850.721 459.14 850.372 457.333C850.024 455.526 850.433 453.729 851.599 451.943Z" fill="#1D1D1D"/>
<path d="M118.984 158.494C125.225 169.474 118.984 190.835 118.984 190.835H79.1445L79.1445 91H88.5186H96.0179C96.0179 91 98.2838 96.8354 96.0179 98.968C93.8852 100.975 88.5186 98.968 88.5186 98.968L88.5186 127.091C88.5186 127.091 92.4843 129.983 93.6744 132.715C95.1365 136.071 93.6744 142.089 93.6744 142.089C93.6744 142.089 113.164 148.254 118.984 158.494Z" fill="#1D1D1D"/>
<path d="M39.7734 158.494C33.5329 169.474 39.7734 190.835 39.7734 190.835H79.6133L79.6133 91H70.2392H62.7399C62.7399 91 60.474 96.8354 62.7399 98.968C64.8726 100.975 70.2392 98.968 70.2392 98.968L70.2392 127.091C70.2392 127.091 66.2735 129.983 65.0835 132.715C63.6214 136.071 65.0835 142.089 65.0835 142.089C65.0835 142.089 45.5934 148.254 39.7734 158.494Z" fill="#1D1D1D"/>
<ellipse cx="420.5" cy="531" rx="19.5" ry="19" fill="#1D1D1D"/>
<circle cx="19.5" cy="19.5" r="19.5" transform="matrix(-1 0 0 1 1035.94 514.395)" fill="#1D1D1D"/>
<circle cx="14" cy="14" r="14" transform="matrix(-1 0 0 1 1111 461)" fill="#1D1D1D"/>
<circle cx="327.5" cy="473.5" r="13.5" fill="#1D1D1D"/>
<ellipse cx="79.3421" cy="71.3422" rx="17.3421" ry="17.3422" fill="#1D1D1D"/>
<path d="M1325.46 155.896C1333.2 166.848 1325.46 190.238 1325.46 190.238H1288.95V52H1296.34V61.5636H1304.6V52H1311.12C1311.12 52 1313.85 64.6789 1311.12 71.9967C1308.8 78.2334 1300.69 85.4727 1300.69 85.4727L1311.12 145.028C1311.12 145.028 1321.41 150.156 1325.46 155.896Z" fill="#1D1D1D"/>
<path d="M1252.43 155.896C1244.69 166.848 1252.43 190.238 1252.43 190.238H1288.95V52H1281.56V61.5636H1273.3V52H1266.78C1266.78 52 1264.05 64.6789 1266.78 71.9967C1269.1 78.2334 1277.21 85.4727 1277.21 85.4727L1266.78 145.028C1266.78 145.028 1256.49 150.156 1252.43 155.896Z" fill="#1D1D1D"/>
<path d="M1400.98 160.178C1407.22 171.158 1400.98 192.519 1400.98 192.519H1361.14V92.6836H1370.52H1378.02C1378.02 92.6836 1380.28 98.519 1378.02 100.652C1375.89 102.659 1370.52 100.652 1370.52 100.652V128.774C1370.52 128.774 1374.48 131.667 1375.67 134.399C1377.14 137.755 1375.67 143.773 1375.67 143.773C1375.67 143.773 1395.16 149.937 1400.98 160.178Z" fill="#1D1D1D"/>
<path d="M1321.77 160.178C1315.53 171.158 1321.77 192.519 1321.77 192.519H1361.61V92.6836H1352.24H1344.74C1344.74 92.6836 1342.47 98.519 1344.74 100.652C1346.87 102.659 1352.24 100.652 1352.24 100.652V128.774C1352.24 128.774 1348.27 131.667 1347.08 134.399C1345.62 137.755 1347.08 143.773 1347.08 143.773C1347.08 143.773 1327.59 149.937 1321.77 160.178Z" fill="#1D1D1D"/>
<ellipse cx="1361.34" cy="71.3422" rx="17.3421" ry="17.3422" fill="#1D1D1D"/>
<path d="M148 52.1895H154V190.001H148V52.1895Z" fill="#1D1D1D"/>
</g>
<defs>
<clipPath id="clip0_7111_12676">
<rect width="1440" height="951" fill="white"/>
</clipPath>
</defs>
</svg>
