<svg width="1446" height="730" viewBox="0 0 1446 730" fill="none" xmlns="http://www.w3.org/2000/svg">
<path d="M938.004 137V590H504.009L506.009 137H938.004Z" stroke="#1D1D1D" stroke-width="2"/>
<path d="M505.004 287L583 287M939.004 287H817.935H717.9L583 287M583 287V589M505.004 438.52H936.313H939.004" stroke="#1D1D1D" stroke-width="2"/>
<rect x="528" y="170" width="32" height="32" stroke="#1D1D1D" stroke-width="2"/>
<rect x="528.508" y="217.75" width="31" height="31" fill="#1D1D1D" stroke="#1D1D1D" stroke-width="3"/>
<rect x="528" y="470" width="32" height="32" stroke="#1D1D1D" stroke-width="2"/>
<rect x="528.5" y="517.5" width="31" height="31" fill="#1D1D1D" stroke="#1D1D1D" stroke-width="3"/>
<rect x="528" y="322" width="32" height="32" stroke="#1D1D1D" stroke-width="2"/>
<rect x="528.5" y="369.5" width="31" height="31" fill="#1D1D1D" stroke="#1D1D1D" stroke-width="3"/>
<rect width="24.6587" height="24.6587" transform="matrix(-0.707105 -0.707108 0.707105 -0.707108 218.355 551.977)" fill="#1D1D1D"/>
<rect width="24.6587" height="24.6587" transform="matrix(-0.707108 -0.707106 0.707108 -0.707106 185.008 588.711)" fill="#1D1D1D"/>
<rect width="24.6587" height="24.6587" transform="matrix(-0.707108 -0.707106 0.707108 -0.707106 185.008 551.977)" fill="#1D1D1D"/>
<rect width="24.6587" height="24.6587" transform="matrix(-0.707108 -0.707106 0.707108 -0.707106 218.355 589.574)" fill="#1D1D1D"/>
<rect width="24.6587" height="24.6587" transform="matrix(-0.707105 -0.707108 0.707105 -0.707108 151.66 551.977)" fill="#1D1D1D"/>
<rect width="24.6587" height="24.6587" transform="matrix(-0.707108 -0.707106 0.707108 -0.707106 118.312 588.711)" fill="#1D1D1D"/>
<rect width="24.6587" height="24.6587" transform="matrix(-0.707108 -0.707106 0.707108 -0.707106 118.312 551.977)" fill="#1D1D1D"/>
<rect width="24.6587" height="24.6587" transform="matrix(-0.707108 -0.707106 0.707108 -0.707106 151.66 588.711)" fill="#1D1D1D"/>
<rect width="24.6587" height="24.6587" transform="matrix(-0.707105 -0.707108 0.707105 -0.707108 84.9688 551.977)" fill="#1D1D1D"/>
<rect width="24.6587" height="24.6587" transform="matrix(-0.707108 -0.707106 0.707108 -0.707106 52.4375 588.711)" fill="#1D1D1D"/>
<rect width="24.6587" height="24.6587" transform="matrix(-0.707108 -0.707106 0.707108 -0.707106 52.4375 551.977)" fill="#1D1D1D"/>
<rect width="24.6587" height="24.6587" transform="matrix(-0.707108 -0.707106 0.707108 -0.707106 84.9688 588.711)" fill="#1D1D1D"/>
<rect width="24.6587" height="24.6587" transform="matrix(-0.707105 -0.707108 0.707105 -0.707108 218.355 478.615)" fill="#1D1D1D"/>
<rect width="24.6587" height="24.6587" transform="matrix(-0.707108 -0.707106 0.707108 -0.707106 185.008 515.35)" fill="#1D1D1D"/>
<rect width="24.6587" height="24.6587" transform="matrix(-0.707108 -0.707106 0.707108 -0.707106 185.008 478.615)" fill="#1D1D1D"/>
<rect width="24.6587" height="24.6587" transform="matrix(-0.707108 -0.707106 0.707108 -0.707106 218.355 515.35)" fill="#1D1D1D"/>
<rect width="24.6587" height="24.6587" transform="matrix(-0.707105 -0.707108 0.707105 -0.707108 151.66 478.615)" fill="#1D1D1D"/>
<rect width="24.6587" height="24.6587" transform="matrix(-0.707108 -0.707106 0.707108 -0.707106 118.312 515.35)" fill="#1D1D1D"/>
<rect width="24.6587" height="24.6587" transform="matrix(-0.707108 -0.707106 0.707108 -0.707106 118.312 478.615)" fill="#1D1D1D"/>
<rect width="24.6587" height="24.6587" transform="matrix(-0.707108 -0.707106 0.707108 -0.707106 151.66 515.35)" fill="#1D1D1D"/>
<rect width="24.6587" height="24.6587" transform="matrix(-0.707105 -0.707108 0.707105 -0.707108 84.9688 478.615)" fill="#1D1D1D"/>
<rect width="24.6587" height="24.6587" transform="matrix(-0.707108 -0.707106 0.707108 -0.707106 52.4375 515.35)" fill="#1D1D1D"/>
<rect width="24.6587" height="24.6587" transform="matrix(-0.707108 -0.707106 0.707108 -0.707106 52.4375 478.615)" fill="#1D1D1D"/>
<rect width="24.6587" height="24.6587" transform="matrix(-0.707108 -0.707106 0.707108 -0.707106 84.9688 515.35)" fill="#1D1D1D"/>
<rect width="24.6587" height="24.6587" transform="matrix(-0.707105 -0.707108 0.707105 -0.707108 218.355 405.486)" fill="#1D1D1D"/>
<rect width="24.6587" height="24.6587" transform="matrix(-0.707108 -0.707106 0.707108 -0.707106 185.008 442.217)" fill="#1D1D1D"/>
<rect width="24.6587" height="24.6587" transform="matrix(-0.707108 -0.707106 0.707108 -0.707106 185.008 405.486)" fill="#1D1D1D"/>
<rect width="24.6587" height="24.6587" transform="matrix(-0.707108 -0.707106 0.707108 -0.707106 218.355 442.217)" fill="#1D1D1D"/>
<rect width="24.6587" height="24.6587" transform="matrix(-0.707105 -0.707108 0.707105 -0.707108 151.66 405.486)" fill="#1D1D1D"/>
<rect width="24.6587" height="24.6587" transform="matrix(-0.707108 -0.707106 0.707108 -0.707106 118.312 442.217)" fill="#1D1D1D"/>
<rect width="24.6587" height="24.6587" transform="matrix(-0.707108 -0.707106 0.707108 -0.707106 118.312 405.486)" fill="#1D1D1D"/>
<rect width="24.6587" height="24.6587" transform="matrix(-0.707108 -0.707106 0.707108 -0.707106 151.66 442.217)" fill="#1D1D1D"/>
<rect width="24.6587" height="24.6587" transform="matrix(-0.707105 -0.707108 0.707105 -0.707108 84.9688 405.486)" fill="#1D1D1D"/>
<rect width="24.6587" height="24.6587" transform="matrix(-0.707108 -0.707106 0.707108 -0.707106 52.4375 442.217)" fill="#1D1D1D"/>
<rect width="24.6587" height="24.6587" transform="matrix(-0.707108 -0.707106 0.707108 -0.707106 52.4375 405.484)" fill="#1D1D1D"/>
<rect width="24.6587" height="24.6587" transform="matrix(-0.707108 -0.707106 0.707108 -0.707106 84.9688 442.217)" fill="#1D1D1D"/>
<path d="M937.583 420.913C940.977 426.884 937.583 438.5 937.583 438.5H915.918V384.209H921.016H925.094C925.094 384.209 926.326 387.382 925.094 388.542C923.934 389.634 921.016 388.542 921.016 388.542V403.835C921.016 403.835 923.172 405.408 923.819 406.894C924.614 408.719 923.819 411.992 923.819 411.992C923.819 411.992 934.418 415.344 937.583 420.913Z" fill="#1D1D1D"/>
<path d="M894.511 420.913C891.117 426.884 894.511 438.5 894.511 438.5H916.176V384.209H911.078H907C907 384.209 905.768 387.382 907 388.542C908.16 389.634 911.078 388.542 911.078 388.542V403.835C911.078 403.835 908.922 405.408 908.274 406.894C907.479 408.719 908.274 411.992 908.274 411.992C908.274 411.992 897.676 415.344 894.511 420.913Z" fill="#1D1D1D"/>
<ellipse cx="916.567" cy="372.431" rx="9.43071" ry="9.43081" fill="#1D1D1D"/>
<path d="M936.431 267.998C940.826 274.218 936.431 287.5 936.431 287.5H915.695V209H919.892V214.431H924.582V209H928.285C928.285 209 929.833 216.2 928.285 220.355C926.965 223.897 922.36 228.008 922.36 228.008L928.285 261.827C928.285 261.827 934.128 264.739 936.431 267.998Z" fill="#1D1D1D"/>
<path d="M894.959 267.998C890.564 274.218 894.959 287.5 894.959 287.5H915.695V209H911.499V214.431H906.809V209H903.106C903.106 209 901.557 216.2 903.106 220.355C904.425 223.897 909.03 228.008 909.03 228.008L903.106 261.827C903.106 261.827 897.263 264.739 894.959 267.998Z" fill="#1D1D1D"/>
<path d="M938.403 578.342C940.076 582.576 938.403 590.001 938.403 590.001H916.574V568.42H925.504C925.504 568.42 936.067 572.432 938.403 578.342Z" fill="#1D1D1D"/>
<path d="M894.746 578.342C893.072 582.576 894.746 590.001 894.746 590.001H916.574V568.42H907.644C907.644 568.42 897.082 572.432 894.746 578.342Z" fill="#1D1D1D"/>
<path d="M925.5 568.421H907.393C907.393 568.421 905.143 566.584 903.672 565.444C902.141 564.257 901.189 563.711 899.703 562.467C898.284 561.279 896.23 559.243 896.23 559.243C896.23 559.243 898.973 556.439 900.199 554.281C901.426 552.123 902.23 550.803 902.432 548.328C902.649 545.658 901.574 544.235 900.943 541.631C900.069 538.022 899.292 536.072 898.463 532.453C897.649 528.897 896.7 526.922 896.727 523.275C896.754 519.513 897.016 517.207 898.711 513.848C900.564 510.177 902.132 507.794 905.904 506.159C909.198 504.731 913.633 502.379 915.082 505.663C915.708 507.081 915.082 509.632 915.082 509.632C915.082 509.632 934.43 525.755 936.167 528.732C937.903 531.708 936.167 534.685 936.167 534.685C936.167 534.685 933.289 535.225 932.694 536.67C932.325 537.565 932.694 539.15 932.694 539.15C932.694 539.15 929.963 539.39 928.477 538.654C926.358 537.604 927.095 534.798 925.004 533.693C922.863 532.561 919.778 531.476 918.803 533.693C918.374 534.668 918.751 535.357 918.803 536.421C919.361 547.908 941.118 550.74 935.423 560.731C932.995 564.99 925.5 568.421 925.5 568.421Z" fill="#1D1D1D"/>
<path d="M275.656 203.051H241V235.231H275.656V203.051Z" fill="#1D1D1D"/>
<path d="M308.75 235.529H274.094V267.71H308.75V235.529Z" fill="#1D1D1D"/>
<path d="M275.656 137.074H241V169.255H275.656V137.074Z" fill="#1D1D1D"/>
<path d="M307.726 170.572H273.07V202.753H307.726V170.572Z" fill="#1D1D1D"/>
<path d="M341.484 203.051H306.828V235.231H341.484V203.051Z" fill="#1D1D1D"/>
<path d="M341.484 137.074H306.828V169.255H341.484V137.074Z" fill="#1D1D1D"/>
<path d="M405.383 202.471H440.039V170.29H405.383V202.471Z" fill="#1D1D1D"/>
<path d="M372.289 168.182H406.945V136.001H372.289V168.182Z" fill="#1D1D1D"/>
<path d="M372.289 234.951H406.945V202.771H372.289V234.951Z" fill="#1D1D1D"/>
<path d="M339.555 202.471H374.211V170.29H339.555V202.471Z" fill="#1D1D1D"/>
<path d="M275.656 333.986H241V366.167H275.656V333.986Z" fill="#1D1D1D"/>
<path d="M308.75 301.506H274.094V333.686H308.75V301.506Z" fill="#1D1D1D"/>
<path d="M342.507 334.781H307.852V366.962H342.507V334.781Z" fill="#1D1D1D"/>
<path d="M275.656 269.025H241V301.206H275.656V269.025Z" fill="#1D1D1D"/>
<path d="M342.507 269.025H307.852V301.206H342.507V269.025Z" fill="#1D1D1D"/>
<path d="M375.242 301.506H340.586V333.686H375.242V301.506Z" fill="#1D1D1D"/>
<path d="M405.383 333.408H440.039V301.228H405.383V333.408Z" fill="#1D1D1D"/>
<path d="M405.383 267.432H440.039V235.251H405.383V267.432Z" fill="#1D1D1D"/>
<path d="M373.309 300.928H407.965V268.747H373.309V300.928Z" fill="#1D1D1D"/>
<path d="M339.555 267.434H374.211V235.253H339.555V267.434Z" fill="#1D1D1D"/>
<path d="M373.309 365.889H407.965V333.708H373.309V365.889Z" fill="#1D1D1D"/>
<path d="M247 416.299V421H279V416.299H272.333L277.667 394.557L269.857 402L262.429 383L256.143 402L247.571 394.557L253.857 416.299H247Z" fill="#1D1D1D"/>
<path d="M367.008 495.078V499.803L334.008 500V494.881H338.722C338.722 494.881 342.627 489.857 343.436 486.021C344.04 483.162 343.436 478.539 343.436 478.539L348.151 476.176H338.722V462H343.436V466.725H348.151V462H352.865V466.725H357.579V462H362.49V476.176H357.579C357.579 476.176 356.683 482.283 357.579 486.021C358.509 489.9 362.294 495.078 362.294 495.078H367.008Z" fill="#1D1D1D"/>
<path d="M218.008 222.078V226.803L185.008 227V221.881H189.722C189.722 221.881 193.627 216.857 194.436 213.021C195.04 210.162 194.436 205.539 194.436 205.539L199.151 203.176H189.722V189H194.436V193.725H199.151V189H203.865V193.725H208.579V189H213.49V203.176H208.579C208.579 203.176 207.683 209.283 208.579 213.021C209.509 216.9 213.294 222.078 213.294 222.078H218.008Z" fill="#1D1D1D"/>
<path d="M100.008 289.175V294H133.008V289.175H126.133L131.633 266.861L123.579 274.5L115.919 255L109.436 274.5L100.597 266.861L107.079 289.175H100.008Z" fill="#1D1D1D"/>
<circle cx="1111.75" cy="248.739" r="107.739" fill="white" stroke="#1D1D1D" stroke-width="4"/>
<circle cx="6.5516" cy="6.5516" r="6.5516" transform="matrix(-1 0 0 1 1162.52 213.248)" fill="#1D1D1D"/>
<path d="M1135.06 213.248L1150.49 215.954H1152.69L1151.04 219.742L1135.06 213.248Z" stroke="#1D1D1D" stroke-width="2"/>
<circle cx="9.00846" cy="9.00846" r="9.00846" transform="matrix(-1 0 0 1 1125.02 237)" fill="#1D1D1D"/>
<path d="M1175.4 172.356L1168.21 180.431M1174.51 186.208L1183.48 179.554M1188.71 186.662L1180.1 192.872M1184.53 200.068L1194.12 195.369" stroke="#1D1D1D" stroke-width="2"/>
<path d="M1200.31 211.501L1190.52 215.986M1193.95 223.768L1204.79 221.288M1206.72 229.857L1196.39 232.074M1197.55 240.404L1208.18 239.953" stroke="#1D1D1D" stroke-width="2"/>
<path d="M1189.16 308.227L1180.51 301.815M1175.35 308.576L1182.75 316.874M1176.17 322.697L1169.25 314.711M1162.51 319.75L1168.03 328.838" stroke="#1D1D1D" stroke-width="2"/>
<path d="M1151.92 337.987L1147.01 328.404M1139.39 332.174L1142.33 342.892M1133.86 345.194L1131.19 334.965M1122.92 336.493L1123.83 347.084" stroke="#1D1D1D" stroke-width="2"/>
<path d="M1102.83 347.316L1103.95 336.61M1095.5 335.605L1092.12 346.194M1083.76 343.495L1087.11 333.47M1079.35 330.235L1074.33 339.606" stroke="#1D1D1D" stroke-width="2"/>
<path d="M1053.85 328.351L1060.37 319.79M1053.68 314.539L1045.28 321.825M1039.55 315.172L1047.63 308.353M1042.68 301.552L1033.52 306.946" stroke="#1D1D1D" stroke-width="2"/>
<path d="M1022.29 287.855L1032.26 283.791M1029.16 275.871L1018.23 277.886M1016.66 269.243L1027.08 267.468M1026.27 259.096L1015.64 259.094" stroke="#1D1D1D" stroke-width="2"/>
<path d="M1015.92 241.341L1026.68 241.568M1026.98 233.068L1016.14 230.578M1018.14 222.024L1028.41 224.531M1030.99 216.525L1021.23 212.303" stroke="#1D1D1D" stroke-width="2"/>
<path d="M1030.28 193.354L1039.45 199.095M1044.09 191.913L1036.02 184.184M1042.15 177.831L1049.72 185.283M1056.07 179.703L1049.83 171.035" stroke="#1D1D1D" stroke-width="2"/>
<path d="M1207.86 258.566L1197.1 258.267M1196.74 266.765L1207.56 269.327M1205.51 277.867L1195.26 275.292M1192.62 283.281L1202.35 287.567" stroke="#1D1D1D" stroke-width="2"/>
<path d="M1116.53 250.776L1109.18 247.941L1076.93 310.301L1070.71 331.843L1084.28 310.301L1109.18 264.352M1116.53 250.776L1120.49 249.075L1118.8 280.822L1114.27 301.797L1109.18 280.822V264.352M1116.53 250.776L1109.18 264.352M1096.17 152.701L1105.22 194.085M1106.35 151L1110.88 193.518M1086.55 154.968L1100.13 194.652M1078.06 159.504L1095.6 195.786M1069.01 164.606L1091.07 198.62M1116.53 157.803V193.518M1126.15 152.701L1125.59 163.472M1134.07 164.039L1136.9 153.268M1145.39 155.535L1142.56 165.74M1150.48 168.574L1155.01 158.937" stroke="#1D1D1D" stroke-width="2"/>
<circle cx="1292.75" cy="479.739" r="107.739" fill="white" stroke="#1D1D1D" stroke-width="4"/>
<circle cx="6.5516" cy="6.5516" r="6.5516" transform="matrix(-1 0 0 1 1343.52 444.248)" fill="#1D1D1D"/>
<path d="M1316.06 444.248L1331.49 446.954H1333.69L1332.04 450.742L1316.06 444.248Z" stroke="#1D1D1D" stroke-width="2"/>
<circle cx="9.00846" cy="9.00846" r="9.00846" transform="matrix(-1 0 0 1 1308.58 469.365)" fill="#1D1D1D"/>
<path d="M1301.78 474.493L1299.66 481.674L1234.09 469.996L1214.28 462.254L1238.35 464.451L1297.07 474.493M1301.78 474.493L1303.57 473.491L1296.54 450.522L1286.95 429.463L1288.47 452.135L1297.07 474.493M1301.78 474.493L1297.07 474.493" stroke="#1D1D1D" stroke-width="2"/>
<path d="M1277.17 384.701L1286.22 426.085M1287.35 383L1291.88 425.518M1267.55 386.968L1281.13 426.652M1259.06 391.504L1276.6 427.786M1250.01 396.606L1272.07 430.62M1297.53 389.803V425.518M1307.15 384.701L1306.59 395.472M1315.07 396.039L1317.9 385.268M1326.39 387.535L1323.56 397.74M1331.48 400.574L1336.01 390.937" stroke="#1D1D1D" stroke-width="2"/>
<path d="M1356.4 403.356L1349.21 411.431M1355.51 417.208L1364.48 410.554M1369.71 417.662L1361.1 423.872M1365.53 431.068L1375.12 426.369" stroke="#1D1D1D" stroke-width="2"/>
<path d="M1381.31 442.501L1371.52 446.986M1374.95 454.768L1385.79 452.288M1387.72 460.857L1377.39 463.074M1378.55 471.404L1389.18 470.953" stroke="#1D1D1D" stroke-width="2"/>
<path d="M1370.16 539.227L1361.51 532.815M1356.35 539.576L1363.75 547.874M1357.17 553.697L1350.25 545.711M1343.51 550.75L1349.03 559.838" stroke="#1D1D1D" stroke-width="2"/>
<path d="M1332.92 568.987L1328.01 559.404M1320.39 563.174L1323.33 573.892M1314.86 576.194L1312.19 565.965M1303.92 567.493L1304.83 578.084" stroke="#1D1D1D" stroke-width="2"/>
<path d="M1283.83 578.316L1284.95 567.61M1276.5 566.605L1273.12 577.194M1264.76 574.495L1268.11 564.47M1260.35 561.235L1255.33 570.606" stroke="#1D1D1D" stroke-width="2"/>
<path d="M1234.85 559.351L1241.37 550.79M1234.68 545.539L1226.28 552.825M1220.55 546.172L1228.63 539.353M1223.68 532.552L1214.52 537.946" stroke="#1D1D1D" stroke-width="2"/>
<path d="M1203.29 518.855L1213.26 514.791M1210.16 506.871L1199.23 508.886M1197.66 500.243L1208.08 498.468M1207.27 490.096L1196.64 490.094" stroke="#1D1D1D" stroke-width="2"/>
<path d="M1196.92 472.341L1207.68 472.568M1207.98 464.068L1197.14 461.578M1199.14 453.024L1209.41 455.531M1211.99 447.525L1202.23 443.303" stroke="#1D1D1D" stroke-width="2"/>
<path d="M1211.28 424.354L1220.45 430.095M1225.09 422.913L1217.02 415.184M1223.15 408.831L1230.72 416.283M1237.07 410.703L1230.83 402.035" stroke="#1D1D1D" stroke-width="2"/>
<path d="M1388.86 489.566L1378.1 489.267M1377.74 497.765L1388.56 500.327M1386.51 508.867L1376.26 506.292M1373.62 514.281L1383.35 518.567" stroke="#1D1D1D" stroke-width="2"/>
<path d="M583.5 287V137.5" stroke="#1D1D1D" stroke-width="2"/>
<rect x="914" y="209" width="5" height="78" fill="#1D1D1D"/>
<rect x="914" y="549" width="7" height="42" fill="#1D1D1D"/>
<path d="M907.371 566H925.5V591H907.371V566Z" fill="#1D1D1D"/>
</svg>
