<svg width="1440" height="1099" viewBox="0 0 1440 1099" fill="none" xmlns="http://www.w3.org/2000/svg">
<rect width="24.6587" height="24.6587" transform="matrix(-0.707105 -0.707108 0.707105 -0.707108 1393.34 706.365)" fill="#1D1D1D"/>
<rect width="24.6587" height="24.6587" transform="matrix(-0.707108 -0.707106 0.707108 -0.707106 1359.99 743.1)" fill="#1D1D1D"/>
<rect width="24.6587" height="24.6587" transform="matrix(-0.707108 -0.707106 0.707108 -0.707106 1359.99 706.365)" fill="#1D1D1D"/>
<rect width="24.6587" height="24.6587" transform="matrix(-0.707108 -0.707106 0.707108 -0.707106 1393.34 743.963)" fill="#1D1D1D"/>
<rect width="24.6587" height="24.6587" transform="matrix(-0.707105 -0.707108 0.707105 -0.707108 1326.64 706.365)" fill="#1D1D1D"/>
<rect width="24.6587" height="24.6587" transform="matrix(-0.707108 -0.707106 0.707108 -0.707106 1293.3 743.1)" fill="#1D1D1D"/>
<rect width="24.6587" height="24.6587" transform="matrix(-0.707108 -0.707106 0.707108 -0.707106 1293.3 706.365)" fill="#1D1D1D"/>
<rect width="24.6587" height="24.6587" transform="matrix(-0.707108 -0.707106 0.707108 -0.707106 1326.64 743.1)" fill="#1D1D1D"/>
<rect width="24.6587" height="24.6587" transform="matrix(-0.707105 -0.707108 0.707105 -0.707108 1259.95 706.365)" fill="#1D1D1D"/>
<rect width="24.6587" height="24.6587" transform="matrix(-0.707108 -0.707106 0.707108 -0.707106 1227.42 743.1)" fill="#1D1D1D"/>
<rect width="24.6587" height="24.6587" transform="matrix(-0.707108 -0.707106 0.707108 -0.707106 1227.42 706.365)" fill="#1D1D1D"/>
<rect width="24.6587" height="24.6587" transform="matrix(-0.707108 -0.707106 0.707108 -0.707106 1259.95 743.1)" fill="#1D1D1D"/>
<rect width="24.6587" height="24.6587" transform="matrix(-0.707105 -0.707108 0.707105 -0.707108 1393.34 633.004)" fill="#1D1D1D"/>
<rect width="24.6587" height="24.6587" transform="matrix(-0.707108 -0.707106 0.707108 -0.707106 1359.99 669.738)" fill="#1D1D1D"/>
<rect width="24.6587" height="24.6587" transform="matrix(-0.707108 -0.707106 0.707108 -0.707106 1359.99 633.004)" fill="#1D1D1D"/>
<rect width="24.6587" height="24.6587" transform="matrix(-0.707108 -0.707106 0.707108 -0.707106 1393.34 669.738)" fill="#1D1D1D"/>
<rect width="24.6587" height="24.6587" transform="matrix(-0.707105 -0.707108 0.707105 -0.707108 1326.64 633.004)" fill="#1D1D1D"/>
<rect width="24.6587" height="24.6587" transform="matrix(-0.707108 -0.707106 0.707108 -0.707106 1293.3 669.738)" fill="#1D1D1D"/>
<rect width="24.6587" height="24.6587" transform="matrix(-0.707108 -0.707106 0.707108 -0.707106 1293.3 633.004)" fill="#1D1D1D"/>
<rect width="24.6587" height="24.6587" transform="matrix(-0.707108 -0.707106 0.707108 -0.707106 1326.64 669.738)" fill="#1D1D1D"/>
<rect width="24.6587" height="24.6587" transform="matrix(-0.707105 -0.707108 0.707105 -0.707108 1259.95 633.004)" fill="#1D1D1D"/>
<rect width="24.6587" height="24.6587" transform="matrix(-0.707108 -0.707106 0.707108 -0.707106 1227.42 669.738)" fill="#1D1D1D"/>
<rect width="24.6587" height="24.6587" transform="matrix(-0.707108 -0.707106 0.707108 -0.707106 1227.42 633.004)" fill="#1D1D1D"/>
<rect width="24.6587" height="24.6587" transform="matrix(-0.707108 -0.707106 0.707108 -0.707106 1259.95 669.738)" fill="#1D1D1D"/>
<rect width="24.6587" height="24.6587" transform="matrix(-0.707105 -0.707108 0.707105 -0.707108 1393.34 559.875)" fill="#1D1D1D"/>
<rect width="24.6587" height="24.6587" transform="matrix(-0.707108 -0.707106 0.707108 -0.707106 1359.99 596.605)" fill="#1D1D1D"/>
<rect width="24.6587" height="24.6587" transform="matrix(-0.707108 -0.707106 0.707108 -0.707106 1359.99 559.875)" fill="#1D1D1D"/>
<rect width="24.6587" height="24.6587" transform="matrix(-0.707108 -0.707106 0.707108 -0.707106 1393.34 596.605)" fill="#1D1D1D"/>
<rect width="24.6587" height="24.6587" transform="matrix(-0.707105 -0.707108 0.707105 -0.707108 1326.64 559.875)" fill="#1D1D1D"/>
<rect width="24.6587" height="24.6587" transform="matrix(-0.707108 -0.707106 0.707108 -0.707106 1293.3 596.605)" fill="#1D1D1D"/>
<rect width="24.6587" height="24.6587" transform="matrix(-0.707108 -0.707106 0.707108 -0.707106 1293.3 559.875)" fill="#1D1D1D"/>
<rect width="24.6587" height="24.6587" transform="matrix(-0.707108 -0.707106 0.707108 -0.707106 1326.64 596.605)" fill="#1D1D1D"/>
<rect width="24.6587" height="24.6587" transform="matrix(-0.707105 -0.707108 0.707105 -0.707108 1259.95 559.875)" fill="#1D1D1D"/>
<rect width="24.6587" height="24.6587" transform="matrix(-0.707108 -0.707106 0.707108 -0.707106 1227.42 596.605)" fill="#1D1D1D"/>
<rect width="24.6587" height="24.6587" transform="matrix(-0.707108 -0.707106 0.707108 -0.707106 1227.42 559.873)" fill="#1D1D1D"/>
<rect width="24.6587" height="24.6587" transform="matrix(-0.707108 -0.707106 0.707108 -0.707106 1259.95 596.605)" fill="#1D1D1D"/>
<rect width="24.6587" height="24.6587" transform="matrix(-0.999997 0.0022286 -0.00223264 -0.999997 287.891 320.314)" fill="#1D1D1D"/>
<rect width="24.6587" height="24.6587" transform="matrix(-0.999997 0.00223205 -0.00222919 -0.999997 290.395 369.865)" fill="#1D1D1D"/>
<rect width="24.6587" height="24.6587" transform="matrix(-0.999997 0.00223205 -0.00222919 -0.999997 264.363 343.947)" fill="#1D1D1D"/>
<rect width="24.6587" height="24.6587" transform="matrix(-0.999997 0.00223205 -0.00222919 -0.999997 314.535 346.842)" fill="#1D1D1D"/>
<rect width="24.6587" height="24.6587" transform="matrix(-0.999997 0.0022286 -0.00223264 -0.999997 240.836 367.58)" fill="#1D1D1D"/>
<rect width="24.6587" height="24.6587" transform="matrix(-0.999997 0.00223205 -0.00222919 -0.999997 243.34 417.131)" fill="#1D1D1D"/>
<rect width="24.6587" height="24.6587" transform="matrix(-0.999997 0.00223205 -0.00222919 -0.999997 217.309 391.213)" fill="#1D1D1D"/>
<rect width="24.6587" height="24.6587" transform="matrix(-0.999997 0.00223205 -0.00222919 -0.999997 266.867 393.498)" fill="#1D1D1D"/>
<rect width="24.6587" height="24.6587" transform="matrix(-0.999997 0.0022286 -0.00223264 -0.999997 193.781 414.844)" fill="#1D1D1D"/>
<rect width="24.6587" height="24.6587" transform="matrix(-0.999997 0.00223205 -0.00222919 -0.999997 196.863 463.816)" fill="#1D1D1D"/>
<rect width="24.6587" height="24.6587" transform="matrix(-0.999997 0.00223205 -0.00222919 -0.999997 170.832 437.898)" fill="#1D1D1D"/>
<rect width="24.6587" height="24.6587" transform="matrix(-0.999997 0.00223205 -0.00222919 -0.999997 219.816 440.762)" fill="#1D1D1D"/>
<rect width="24.6587" height="24.6587" transform="matrix(-0.999997 0.0022286 -0.00223264 -0.999997 235.902 268.559)" fill="#1D1D1D"/>
<rect width="24.6587" height="24.6587" transform="matrix(-0.999997 0.00223205 -0.00222919 -0.999997 238.406 318.107)" fill="#1D1D1D"/>
<rect width="24.6587" height="24.6587" transform="matrix(-0.999997 0.00223205 -0.00222919 -0.999997 212.375 292.191)" fill="#1D1D1D"/>
<rect width="24.6587" height="24.6587" transform="matrix(-0.999997 0.00223205 -0.00222919 -0.999997 261.934 294.475)" fill="#1D1D1D"/>
<rect width="24.6587" height="24.6587" transform="matrix(-0.999997 0.0022286 -0.00223264 -0.999997 188.848 315.824)" fill="#1D1D1D"/>
<rect width="24.6587" height="24.6587" transform="matrix(-0.999997 0.00223205 -0.00222919 -0.999997 191.352 365.373)" fill="#1D1D1D"/>
<rect width="24.6587" height="24.6587" transform="matrix(-0.999997 0.00223205 -0.00222919 -0.999997 165.32 339.457)" fill="#1D1D1D"/>
<rect width="24.6587" height="24.6587" transform="matrix(-0.999997 0.00223205 -0.00222919 -0.999997 214.879 341.74)" fill="#1D1D1D"/>
<rect width="24.6587" height="24.6587" transform="matrix(-0.999997 0.0022286 -0.00223264 -0.999997 141.793 363.086)" fill="#1D1D1D"/>
<rect width="24.6587" height="24.6587" transform="matrix(-0.999997 0.00223205 -0.00222919 -0.999997 144.875 412.057)" fill="#1D1D1D"/>
<rect width="24.6587" height="24.6587" transform="matrix(-0.999997 0.00223205 -0.00222919 -0.999997 118.844 386.141)" fill="#1D1D1D"/>
<rect width="24.6587" height="24.6587" transform="matrix(-0.999997 0.00223205 -0.00222919 -0.999997 167.824 389.002)" fill="#1D1D1D"/>
<rect width="24.6587" height="24.6587" transform="matrix(-0.999997 0.0022286 -0.00223264 -0.999997 184.078 216.963)" fill="#1D1D1D"/>
<rect width="24.6587" height="24.6587" transform="matrix(-0.999997 0.00223205 -0.00222919 -0.999997 186.578 266.512)" fill="#1D1D1D"/>
<rect width="24.6587" height="24.6587" transform="matrix(-0.999997 0.00223205 -0.00222919 -0.999997 160.551 240.596)" fill="#1D1D1D"/>
<rect width="24.6587" height="24.6587" transform="matrix(-0.999997 0.00223205 -0.00222919 -0.999997 210.105 242.879)" fill="#1D1D1D"/>
<rect width="24.6587" height="24.6587" transform="matrix(-0.999997 0.0022286 -0.00223264 -0.999997 137.023 264.229)" fill="#1D1D1D"/>
<rect width="24.6587" height="24.6587" transform="matrix(-0.999997 0.00223205 -0.00222919 -0.999997 139.523 313.777)" fill="#1D1D1D"/>
<rect width="24.6587" height="24.6587" transform="matrix(-0.999997 0.00223205 -0.00222919 -0.999997 113.496 287.861)" fill="#1D1D1D"/>
<rect width="24.6587" height="24.6587" transform="matrix(-0.999997 0.00223205 -0.00222919 -0.999997 163.051 290.145)" fill="#1D1D1D"/>
<rect width="24.6587" height="24.6587" transform="matrix(-0.999997 0.0022286 -0.00223264 -0.999997 89.9688 311.492)" fill="#1D1D1D"/>
<rect width="24.6587" height="24.6587" transform="matrix(-0.999997 0.00223205 -0.00222919 -0.999997 93.0469 360.461)" fill="#1D1D1D"/>
<rect width="24.6587" height="24.6587" transform="matrix(-0.999997 0.00223205 -0.00222919 -0.999997 67.0156 334.545)" fill="#1D1D1D"/>
<rect width="24.6587" height="24.6587" transform="matrix(-0.999997 0.00223205 -0.00222919 -0.999997 116 337.406)" fill="#1D1D1D"/>
<path d="M79 898.002H42V932.002H79V898.002Z" fill="#1D1D1D"/>
<path d="M116 932.002H79V966.002H116V932.002Z" fill="#1D1D1D"/>
<path d="M116 864.002H79V898.002H116V864.002Z" fill="#1D1D1D"/>
<path d="M79 830.002H42V864.002H79V830.002Z" fill="#1D1D1D"/>
<path d="M79 966.002H42V1000H79V966.002Z" fill="#1D1D1D"/>
<path d="M116 1000H79V1034H116V1000Z" fill="#1D1D1D"/>
<path d="M79 1034H42V1068H79V1034Z" fill="#1D1D1D"/>
<path d="M153 898.002H116V932.002H153V898.002Z" fill="#1D1D1D"/>
<path d="M190 932.002H153V966.002H190V932.002Z" fill="#1D1D1D"/>
<path d="M190 864.002H153V898.002H190V864.002Z" fill="#1D1D1D"/>
<path d="M153 830.002H116V864.002H153V830.002Z" fill="#1D1D1D"/>
<path d="M153 966.002H116V1000H153V966.002Z" fill="#1D1D1D"/>
<path d="M190 1000H153V1034H190V1000Z" fill="#1D1D1D"/>
<path d="M153 1034H116V1068H153V1034Z" fill="#1D1D1D"/>
<path d="M227 898.002H190V932.002H227V898.002Z" fill="#1D1D1D"/>
<path d="M264 932.002H227V966.002H264V932.002Z" fill="#1D1D1D"/>
<path d="M264 864.002H227V898.002H264V864.002Z" fill="#1D1D1D"/>
<path d="M227 830.002H190V864.002H227V830.002Z" fill="#1D1D1D"/>
<path d="M227 966.002H190V1000H227V966.002Z" fill="#1D1D1D"/>
<path d="M264 1000H227V1034H264V1000Z" fill="#1D1D1D"/>
<path d="M227 1034H190V1068H227V1034Z" fill="#1D1D1D"/>
</svg>
