<svg width="1446" height="541" viewBox="0 0 1446 541" fill="none" xmlns="http://www.w3.org/2000/svg" xmlns:xlink="http://www.w3.org/1999/xlink">
<path d="M357.155 167H839M298 122H839" stroke="#1D1D1D" stroke-width="3.09064"/>
<path d="M806.425 385.624V450.808H762.798C747.058 450.808 733.371 448.242 721.737 443.109C710.446 437.634 701.892 429.936 696.075 420.013C670.07 444.649 633.115 456.967 585.211 456.967C548.941 456.967 520.712 450.124 500.524 436.437C480.336 422.75 470.242 403.588 470.242 378.952C470.242 358.08 477.77 341.485 492.825 329.166C507.881 316.506 529.78 308.636 558.522 305.557L685.296 291.699C681.19 266.378 658.265 253.718 616.52 253.718C594.621 253.718 577.513 256.797 565.194 262.956C553.219 268.773 547.231 276.985 547.231 287.593V289.132H472.295V287.593C472.295 267.405 478.112 249.783 489.746 234.727C501.722 219.672 518.659 208.038 540.558 199.826C562.457 191.614 587.949 187.508 617.033 187.508C662.2 187.508 697.272 197.602 722.251 217.79C747.571 237.978 760.232 265.865 760.232 301.451V365.094C760.232 378.781 768.102 385.624 783.841 385.624H806.425ZM590.344 397.429C612.243 397.429 631.576 394.179 648.342 387.678C665.45 380.834 677.94 371.767 685.81 360.475V343.024L578.026 355.342C566.734 356.711 558.351 359.106 552.876 362.528C547.402 365.95 544.664 370.74 544.664 376.899C544.664 390.586 559.891 397.429 590.344 397.429Z" fill="white"/>
<path d="M806.425 385.624V450.808H762.798C747.058 450.808 733.371 448.242 721.737 443.109C710.446 437.634 701.892 429.936 696.075 420.013C670.07 444.649 633.115 456.967 585.211 456.967C548.941 456.967 520.712 450.124 500.524 436.437C480.336 422.75 470.242 403.588 470.242 378.952C470.242 358.08 477.77 341.485 492.825 329.166C507.881 316.506 529.78 308.636 558.522 305.557L685.296 291.699C681.19 266.378 658.265 253.718 616.52 253.718C594.621 253.718 577.513 256.797 565.194 262.956C553.219 268.773 547.231 276.985 547.231 287.593V289.132H472.295V287.593C472.295 267.405 478.112 249.783 489.746 234.727C501.722 219.672 518.659 208.038 540.558 199.826C562.457 191.614 587.949 187.508 617.033 187.508C662.2 187.508 697.272 197.602 722.251 217.79C747.571 237.978 760.232 265.865 760.232 301.451V365.094C760.232 378.781 768.102 385.624 783.841 385.624H806.425ZM590.344 397.429C612.243 397.429 631.576 394.179 648.342 387.678C665.45 380.834 677.94 371.767 685.81 360.475V343.024L578.026 355.342C566.734 356.711 558.351 359.106 552.876 362.528C547.402 365.95 544.664 370.74 544.664 376.899C544.664 390.586 559.891 397.429 590.344 397.429Z" fill="url(#pattern0_7045_9114)"/>
<path d="M484.275 444.819V456.623H407.286L376.491 386.821H208.143L177.348 456.623H100.359V444.819L249.717 119.928H334.917L484.275 444.819ZM347.235 320.097L292.317 194.863L237.399 320.097H347.235Z" fill="white"/>
<path d="M484.275 444.819V456.623H407.286L376.491 386.821H208.143L177.348 456.623H100.359V444.819L249.717 119.928H334.917L484.275 444.819ZM347.235 320.097L292.317 194.863L237.399 320.097H347.235Z" fill="url(#pattern1_7045_9114)"/>
<path d="M491.561 122.933C490.975 122.348 490.025 122.348 489.439 122.933L479.893 132.479C479.308 133.065 479.308 134.015 479.893 134.601C480.479 135.187 481.429 135.187 482.015 134.601L490.5 126.115L498.985 134.601C499.571 135.187 500.521 135.187 501.107 134.601C501.692 134.015 501.692 133.065 501.107 132.479L491.561 122.933ZM489.439 166.067C490.025 166.653 490.975 166.653 491.561 166.067L501.107 156.521C501.692 155.935 501.692 154.986 501.107 154.4C500.521 153.814 499.571 153.814 498.985 154.4L490.5 162.885L482.015 154.4C481.429 153.814 480.479 153.814 479.893 154.4C479.308 154.986 479.308 155.935 479.893 156.521L489.439 166.067ZM490.5 123.994H489V165.006H490.5H492V123.994H490.5Z" fill="#1D1D1D"/>
<ellipse cx="177.895" cy="98.9815" rx="14.9814" ry="14.9815" fill="#1D1D1D"/>
<path d="M262.79 407.6C268.219 425.925 262.79 456.54 262.79 456.54H178.895V107.971H188.882C188.882 107.971 215.775 144.326 214.85 170.893C214.189 189.878 198.87 216.836 198.87 216.836C198.87 216.836 234.322 239.826 221.841 248.797C214.557 254.032 198.87 248.797 198.87 248.797L214.85 342.68C214.85 342.68 219.399 341.459 221.841 342.68C226.725 345.122 221.841 356.663 221.841 356.663C221.841 356.663 255.54 383.128 262.79 407.6Z" fill="#1D1D1D"/>
<path d="M95.4129 407.6C89.9839 425.925 95.4129 456.54 95.4129 456.54H179.309V107.971H169.321C169.321 107.971 142.428 144.326 143.353 170.893C144.015 189.878 159.333 216.836 159.333 216.836C159.333 216.836 123.881 239.826 136.362 248.797C143.646 254.032 159.333 248.797 159.333 248.797L143.353 342.68C143.353 342.68 138.804 341.459 136.362 342.68C131.478 345.122 136.362 356.663 136.362 356.663C136.362 356.663 102.663 383.128 95.4129 407.6Z" fill="#1D1D1D"/>
<path d="M828.211 401.559C838.985 420.516 828.211 457.395 828.211 457.395H759.426V285.031H775.61H788.558C788.558 285.031 792.47 295.106 788.558 298.788C784.876 302.253 775.61 298.788 775.61 298.788V347.341C775.61 347.341 782.457 352.335 784.512 357.052C787.036 362.846 784.512 373.236 784.512 373.236C784.512 373.236 818.162 383.879 828.211 401.559Z" fill="#1D1D1D"/>
<path d="M691.453 401.559C680.679 420.516 691.453 457.395 691.453 457.395H760.238V285.031H744.054H731.106C731.106 285.031 727.194 295.106 731.106 298.788C734.788 302.253 744.054 298.788 744.054 298.788V347.341C744.054 347.341 737.207 352.335 735.152 357.052C732.628 362.846 735.152 373.236 735.152 373.236C735.152 373.236 701.502 383.879 691.453 401.559Z" fill="#1D1D1D"/>
<ellipse cx="760.239" cy="255.091" rx="29.9417" ry="29.9411" fill="#1D1D1D"/>
<rect x="170" y="87" width="16" height="370" fill="#1D1D1D"/>
<rect x="752" y="228" width="16" height="229" fill="#1D1D1D"/>
<rect x="736.055" y="385.291" width="16" height="48.0272" transform="rotate(-89.1864 736.055 385.291)" fill="#1D1D1D"/>
<rect x="137" y="361.998" width="16" height="83.5299" transform="rotate(-89.1864 137 361.998)" fill="#1D1D1D"/>
<defs>
<pattern id="pattern0_7045_9114" patternUnits="userSpaceOnUse" patternTransform="matrix(54.4842 0 0 126.447 611.091 187.508)" preserveAspectRatio="none" viewBox="0 0.00195312 199.039 461.929" width="1" height="1">
<use xlink:href="#pattern0_7045_9114_inner" transform="translate(-199.039 0)"/>
<g id="pattern0_7045_9114_inner">
<path d="M34.6559 67.0527H0V99.2332H34.6559V67.0527Z" fill="#1D1D1D"/>
<path d="M67.7497 99.5312H33.0938V131.712H67.7497V99.5312Z" fill="#1D1D1D"/>
<path d="M34.6559 1.07617H0V33.2567H34.6559V1.07617Z" fill="#1D1D1D"/>
<path d="M66.7262 34.5742H32.0703V66.7547H66.7262V34.5742Z" fill="#1D1D1D"/>
<path d="M100.484 67.0527H65.8281V99.2332H100.484V67.0527Z" fill="#1D1D1D"/>
<path d="M100.484 1.07617H65.8281V33.2567H100.484V1.07617Z" fill="#1D1D1D"/>
<path d="M164.383 66.4727H199.039V34.2922H164.383V66.4727Z" fill="#1D1D1D"/>
<path d="M131.289 32.1816H165.945V0.00115585H131.289V32.1816Z" fill="#1D1D1D"/>
<path d="M131.289 98.9531H165.945V66.7726H131.289V98.9531Z" fill="#1D1D1D"/>
<path d="M98.555 66.4727H133.211V34.2922H98.555V66.4727Z" fill="#1D1D1D"/>
<path d="M34.6559 197.988H0V230.169H34.6559V197.988Z" fill="#1D1D1D"/>
<path d="M67.7497 165.508H33.0938V197.688H67.7497V165.508Z" fill="#1D1D1D"/>
<path d="M101.507 198.783H66.8516V230.964H101.507V198.783Z" fill="#1D1D1D"/>
<path d="M34.6559 133.027H0V165.208H34.6559V133.027Z" fill="#1D1D1D"/>
<path d="M101.507 133.027H66.8516V165.208H101.507V133.027Z" fill="#1D1D1D"/>
<path d="M134.242 165.508H99.5859V197.688H134.242V165.508Z" fill="#1D1D1D"/>
<path d="M164.383 197.41H199.039V165.23H164.383V197.41Z" fill="#1D1D1D"/>
<path d="M164.383 131.434H199.039V99.2531H164.383V131.434Z" fill="#1D1D1D"/>
<path d="M132.309 164.93H166.965V132.749H132.309V164.93Z" fill="#1D1D1D"/>
<path d="M98.555 131.436H133.211V99.2551H98.555V131.436Z" fill="#1D1D1D"/>
<path d="M132.309 229.891H166.965V197.71H132.309V229.891Z" fill="#1D1D1D"/>
</g>
<use xlink:href="#pattern0_7045_9114_inner" transform="translate(-99.5195 230.964)"/>
<use xlink:href="#pattern0_7045_9114_inner" transform="translate(99.5195 230.964)"/>
</pattern><pattern id="pattern1_7045_9114" patternUnits="userSpaceOnUse" patternTransform="matrix(54.4842 0 0 126.447 265.075 119.928)" preserveAspectRatio="none" viewBox="0 0.00195312 199.039 461.929" width="1" height="1">
<use xlink:href="#pattern1_7045_9114_inner" transform="translate(-199.039 0)"/>
<g id="pattern1_7045_9114_inner">
<path d="M34.6559 67.0527H0V99.2332H34.6559V67.0527Z" fill="#1D1D1D"/>
<path d="M67.7497 99.5312H33.0938V131.712H67.7497V99.5312Z" fill="#1D1D1D"/>
<path d="M34.6559 1.07617H0V33.2567H34.6559V1.07617Z" fill="#1D1D1D"/>
<path d="M66.7262 34.5742H32.0703V66.7547H66.7262V34.5742Z" fill="#1D1D1D"/>
<path d="M100.484 67.0527H65.8281V99.2332H100.484V67.0527Z" fill="#1D1D1D"/>
<path d="M100.484 1.07617H65.8281V33.2567H100.484V1.07617Z" fill="#1D1D1D"/>
<path d="M164.383 66.4727H199.039V34.2922H164.383V66.4727Z" fill="#1D1D1D"/>
<path d="M131.289 32.1816H165.945V0.00115585H131.289V32.1816Z" fill="#1D1D1D"/>
<path d="M131.289 98.9531H165.945V66.7726H131.289V98.9531Z" fill="#1D1D1D"/>
<path d="M98.555 66.4727H133.211V34.2922H98.555V66.4727Z" fill="#1D1D1D"/>
<path d="M34.6559 197.988H0V230.169H34.6559V197.988Z" fill="#1D1D1D"/>
<path d="M67.7497 165.508H33.0938V197.688H67.7497V165.508Z" fill="#1D1D1D"/>
<path d="M101.507 198.783H66.8516V230.964H101.507V198.783Z" fill="#1D1D1D"/>
<path d="M34.6559 133.027H0V165.208H34.6559V133.027Z" fill="#1D1D1D"/>
<path d="M101.507 133.027H66.8516V165.208H101.507V133.027Z" fill="#1D1D1D"/>
<path d="M134.242 165.508H99.5859V197.688H134.242V165.508Z" fill="#1D1D1D"/>
<path d="M164.383 197.41H199.039V165.23H164.383V197.41Z" fill="#1D1D1D"/>
<path d="M164.383 131.434H199.039V99.2531H164.383V131.434Z" fill="#1D1D1D"/>
<path d="M132.309 164.93H166.965V132.749H132.309V164.93Z" fill="#1D1D1D"/>
<path d="M98.555 131.436H133.211V99.2551H98.555V131.436Z" fill="#1D1D1D"/>
<path d="M132.309 229.891H166.965V197.71H132.309V229.891Z" fill="#1D1D1D"/>
</g>
<use xlink:href="#pattern1_7045_9114_inner" transform="translate(-99.5195 230.964)"/>
<use xlink:href="#pattern1_7045_9114_inner" transform="translate(99.5195 230.964)"/>
</pattern></defs>
</svg>
