<svg width="1440" height="1359" viewBox="0 0 1440 1359" fill="none" xmlns="http://www.w3.org/2000/svg">
<rect width="24.6587" height="24.6587" transform="matrix(-0.707105 -0.707108 0.707105 -0.707108 1238.34 784.387)" fill="#1D1D1D"/>
<rect width="24.6587" height="24.6587" transform="matrix(-0.707108 -0.707106 0.707108 -0.707106 1204.99 821.121)" fill="#1D1D1D"/>
<rect width="24.6587" height="24.6587" transform="matrix(-0.707108 -0.707106 0.707108 -0.707106 1204.99 784.387)" fill="#1D1D1D"/>
<rect width="24.6587" height="24.6587" transform="matrix(-0.707108 -0.707106 0.707108 -0.707106 1238.34 821.984)" fill="#1D1D1D"/>
<rect width="24.6587" height="24.6587" transform="matrix(-0.707105 -0.707108 0.707105 -0.707108 1171.64 784.387)" fill="#1D1D1D"/>
<rect width="24.6587" height="24.6587" transform="matrix(-0.707108 -0.707106 0.707108 -0.707106 1138.29 821.121)" fill="#1D1D1D"/>
<rect width="24.6587" height="24.6587" transform="matrix(-0.707108 -0.707106 0.707108 -0.707106 1138.29 784.387)" fill="#1D1D1D"/>
<rect width="24.6587" height="24.6587" transform="matrix(-0.707108 -0.707106 0.707108 -0.707106 1171.64 821.121)" fill="#1D1D1D"/>
<rect width="24.6587" height="24.6587" transform="matrix(-0.707105 -0.707108 0.707105 -0.707108 1104.95 784.387)" fill="#1D1D1D"/>
<rect width="24.6587" height="24.6587" transform="matrix(-0.707108 -0.707106 0.707108 -0.707106 1072.42 821.121)" fill="#1D1D1D"/>
<rect width="24.6587" height="24.6587" transform="matrix(-0.707108 -0.707106 0.707108 -0.707106 1072.42 784.387)" fill="#1D1D1D"/>
<rect width="24.6587" height="24.6587" transform="matrix(-0.707108 -0.707106 0.707108 -0.707106 1104.95 821.121)" fill="#1D1D1D"/>
<rect width="24.6587" height="24.6587" transform="matrix(-0.707105 -0.707108 0.707105 -0.707108 1238.34 711.027)" fill="#1D1D1D"/>
<rect width="24.6587" height="24.6587" transform="matrix(-0.707108 -0.707106 0.707108 -0.707106 1204.99 747.758)" fill="#1D1D1D"/>
<rect width="24.6587" height="24.6587" transform="matrix(-0.707108 -0.707106 0.707108 -0.707106 1204.99 711.027)" fill="#1D1D1D"/>
<rect width="24.6587" height="24.6587" transform="matrix(-0.707108 -0.707106 0.707108 -0.707106 1238.34 747.758)" fill="#1D1D1D"/>
<rect width="24.6587" height="24.6587" transform="matrix(-0.707105 -0.707108 0.707105 -0.707108 1171.64 711.027)" fill="#1D1D1D"/>
<rect width="24.6587" height="24.6587" transform="matrix(-0.707108 -0.707106 0.707108 -0.707106 1138.29 747.758)" fill="#1D1D1D"/>
<rect width="24.6587" height="24.6587" transform="matrix(-0.707108 -0.707106 0.707108 -0.707106 1138.29 711.027)" fill="#1D1D1D"/>
<rect width="24.6587" height="24.6587" transform="matrix(-0.707108 -0.707106 0.707108 -0.707106 1171.64 747.758)" fill="#1D1D1D"/>
<rect width="24.6587" height="24.6587" transform="matrix(-0.707105 -0.707108 0.707105 -0.707108 1104.95 711.027)" fill="#1D1D1D"/>
<rect width="24.6587" height="24.6587" transform="matrix(-0.707108 -0.707106 0.707108 -0.707106 1072.42 747.758)" fill="#1D1D1D"/>
<rect width="24.6587" height="24.6587" transform="matrix(-0.707108 -0.707106 0.707108 -0.707106 1072.42 711.027)" fill="#1D1D1D"/>
<rect width="24.6587" height="24.6587" transform="matrix(-0.707108 -0.707106 0.707108 -0.707106 1104.95 747.758)" fill="#1D1D1D"/>
<rect width="24.6587" height="24.6587" transform="matrix(-0.707105 -0.707108 0.707105 -0.707108 1238.34 637.898)" fill="#1D1D1D"/>
<rect width="24.6587" height="24.6587" transform="matrix(-0.707108 -0.707106 0.707108 -0.707106 1204.99 674.629)" fill="#1D1D1D"/>
<rect width="24.6587" height="24.6587" transform="matrix(-0.707108 -0.707106 0.707108 -0.707106 1204.99 637.898)" fill="#1D1D1D"/>
<rect width="24.6587" height="24.6587" transform="matrix(-0.707108 -0.707106 0.707108 -0.707106 1238.34 674.629)" fill="#1D1D1D"/>
<rect width="24.6587" height="24.6587" transform="matrix(-0.707105 -0.707108 0.707105 -0.707108 1171.64 637.898)" fill="#1D1D1D"/>
<rect width="24.6587" height="24.6587" transform="matrix(-0.707108 -0.707106 0.707108 -0.707106 1138.29 674.629)" fill="#1D1D1D"/>
<rect width="24.6587" height="24.6587" transform="matrix(-0.707108 -0.707106 0.707108 -0.707106 1138.29 637.898)" fill="#1D1D1D"/>
<rect width="24.6587" height="24.6587" transform="matrix(-0.707108 -0.707106 0.707108 -0.707106 1171.64 674.629)" fill="#1D1D1D"/>
<rect width="24.6587" height="24.6587" transform="matrix(-0.707105 -0.707108 0.707105 -0.707108 1104.95 637.898)" fill="#1D1D1D"/>
<rect width="24.6587" height="24.6587" transform="matrix(-0.707108 -0.707106 0.707108 -0.707106 1072.42 674.629)" fill="#1D1D1D"/>
<rect width="24.6587" height="24.6587" transform="matrix(-0.707108 -0.707106 0.707108 -0.707106 1072.42 637.895)" fill="#1D1D1D"/>
<rect width="24.6587" height="24.6587" transform="matrix(-0.707108 -0.707106 0.707108 -0.707106 1104.95 674.629)" fill="#1D1D1D"/>
<rect width="24.6587" height="24.6587" transform="matrix(-0.999997 0.0022286 -0.00223264 -0.999997 441.891 342.312)" fill="#1D1D1D"/>
<rect width="24.6587" height="24.6587" transform="matrix(-0.999997 0.00223205 -0.00222919 -0.999997 444.395 391.863)" fill="#1D1D1D"/>
<rect width="24.6587" height="24.6587" transform="matrix(-0.999997 0.00223205 -0.00222919 -0.999997 418.363 365.945)" fill="#1D1D1D"/>
<rect width="24.6587" height="24.6587" transform="matrix(-0.999997 0.00223205 -0.00222919 -0.999997 468.535 368.84)" fill="#1D1D1D"/>
<rect width="24.6587" height="24.6587" transform="matrix(-0.999997 0.0022286 -0.00223264 -0.999997 394.836 389.578)" fill="#1D1D1D"/>
<rect width="24.6587" height="24.6587" transform="matrix(-0.999997 0.00223205 -0.00222919 -0.999997 397.34 439.129)" fill="#1D1D1D"/>
<rect width="24.6587" height="24.6587" transform="matrix(-0.999997 0.00223205 -0.00222919 -0.999997 371.309 413.211)" fill="#1D1D1D"/>
<rect width="24.6587" height="24.6587" transform="matrix(-0.999997 0.00223205 -0.00222919 -0.999997 420.867 415.496)" fill="#1D1D1D"/>
<rect width="24.6587" height="24.6587" transform="matrix(-0.999997 0.0022286 -0.00223264 -0.999997 347.781 436.844)" fill="#1D1D1D"/>
<rect width="24.6587" height="24.6587" transform="matrix(-0.999997 0.00223205 -0.00222919 -0.999997 350.863 485.812)" fill="#1D1D1D"/>
<rect width="24.6587" height="24.6587" transform="matrix(-0.999997 0.00223205 -0.00222919 -0.999997 324.832 459.895)" fill="#1D1D1D"/>
<rect width="24.6587" height="24.6587" transform="matrix(-0.999997 0.00223205 -0.00222919 -0.999997 373.816 462.758)" fill="#1D1D1D"/>
<rect width="24.6587" height="24.6587" transform="matrix(-0.999997 0.0022286 -0.00223264 -0.999997 389.902 290.555)" fill="#1D1D1D"/>
<rect width="24.6587" height="24.6587" transform="matrix(-0.999997 0.00223205 -0.00222919 -0.999997 392.406 340.105)" fill="#1D1D1D"/>
<rect width="24.6587" height="24.6587" transform="matrix(-0.999997 0.00223205 -0.00222919 -0.999997 366.375 314.188)" fill="#1D1D1D"/>
<rect width="24.6587" height="24.6587" transform="matrix(-0.999997 0.00223205 -0.00222919 -0.999997 415.934 316.473)" fill="#1D1D1D"/>
<rect width="24.6587" height="24.6587" transform="matrix(-0.999997 0.0022286 -0.00223264 -0.999997 342.848 337.82)" fill="#1D1D1D"/>
<rect width="24.6587" height="24.6587" transform="matrix(-0.999997 0.00223205 -0.00222919 -0.999997 345.352 387.371)" fill="#1D1D1D"/>
<rect width="24.6587" height="24.6587" transform="matrix(-0.999997 0.00223205 -0.00222919 -0.999997 319.32 361.453)" fill="#1D1D1D"/>
<rect width="24.6587" height="24.6587" transform="matrix(-0.999997 0.00223205 -0.00222919 -0.999997 368.879 363.738)" fill="#1D1D1D"/>
<rect width="24.6587" height="24.6587" transform="matrix(-0.999997 0.0022286 -0.00223264 -0.999997 295.793 385.086)" fill="#1D1D1D"/>
<rect width="24.6587" height="24.6587" transform="matrix(-0.999997 0.00223205 -0.00222919 -0.999997 298.875 434.055)" fill="#1D1D1D"/>
<rect width="24.6587" height="24.6587" transform="matrix(-0.999997 0.00223205 -0.00222919 -0.999997 272.844 408.141)" fill="#1D1D1D"/>
<rect width="24.6587" height="24.6587" transform="matrix(-0.999997 0.00223205 -0.00222919 -0.999997 321.824 411)" fill="#1D1D1D"/>
<rect width="24.6587" height="24.6587" transform="matrix(-0.999997 0.0022286 -0.00223264 -0.999997 338.078 238.961)" fill="#1D1D1D"/>
<rect width="24.6587" height="24.6587" transform="matrix(-0.999997 0.00223205 -0.00222919 -0.999997 340.578 288.508)" fill="#1D1D1D"/>
<rect width="24.6587" height="24.6587" transform="matrix(-0.999997 0.00223205 -0.00222919 -0.999997 314.547 262.594)" fill="#1D1D1D"/>
<rect width="24.6587" height="24.6587" transform="matrix(-0.999997 0.00223205 -0.00222919 -0.999997 364.105 264.875)" fill="#1D1D1D"/>
<rect width="24.6587" height="24.6587" transform="matrix(-0.999997 0.0022286 -0.00223264 -0.999997 291.02 286.227)" fill="#1D1D1D"/>
<rect width="24.6587" height="24.6587" transform="matrix(-0.999997 0.00223205 -0.00222919 -0.999997 293.523 335.773)" fill="#1D1D1D"/>
<rect width="24.6587" height="24.6587" transform="matrix(-0.999997 0.00223205 -0.00222919 -0.999997 267.492 309.859)" fill="#1D1D1D"/>
<rect width="24.6587" height="24.6587" transform="matrix(-0.999997 0.00223205 -0.00222919 -0.999997 317.051 312.141)" fill="#1D1D1D"/>
<rect width="24.6587" height="24.6587" transform="matrix(-0.999997 0.0022286 -0.00223264 -0.999997 243.969 333.492)" fill="#1D1D1D"/>
<rect width="24.6587" height="24.6587" transform="matrix(-0.999997 0.00223205 -0.00222919 -0.999997 247.047 382.461)" fill="#1D1D1D"/>
<rect width="24.6587" height="24.6587" transform="matrix(-0.999997 0.00223205 -0.00222919 -0.999997 221.016 356.543)" fill="#1D1D1D"/>
<rect width="24.6587" height="24.6587" transform="matrix(-0.999997 0.00223205 -0.00222919 -0.999997 270 359.406)" fill="#1D1D1D"/>
<path d="M243 1053H206V1087H243V1053Z" fill="#1D1D1D"/>
<path d="M280 1087H243V1121H280V1087Z" fill="#1D1D1D"/>
<path d="M280 1019H243V1053H280V1019Z" fill="#1D1D1D"/>
<path d="M243 985H206V1019H243V985Z" fill="#1D1D1D"/>
<path d="M243 1121H206V1155H243V1121Z" fill="#1D1D1D"/>
<path d="M280 1155H243V1189H280V1155Z" fill="#1D1D1D"/>
<path d="M243 1189H206V1223H243V1189Z" fill="#1D1D1D"/>
<path d="M317 1053H280V1087H317V1053Z" fill="#1D1D1D"/>
<path d="M354 1087H317V1121H354V1087Z" fill="#1D1D1D"/>
<path d="M354 1019H317V1053H354V1019Z" fill="#1D1D1D"/>
<path d="M317 985H280V1019H317V985Z" fill="#1D1D1D"/>
<path d="M317 1121H280V1155H317V1121Z" fill="#1D1D1D"/>
<path d="M354 1155H317V1189H354V1155Z" fill="#1D1D1D"/>
<path d="M317 1189H280V1223H317V1189Z" fill="#1D1D1D"/>
<path d="M391 1053H354V1087H391V1053Z" fill="#1D1D1D"/>
<path d="M428 1087H391V1121H428V1087Z" fill="#1D1D1D"/>
<path d="M428 1019H391V1053H428V1019Z" fill="#1D1D1D"/>
<path d="M391 985H354V1019H391V985Z" fill="#1D1D1D"/>
<path d="M391 1121H354V1155H391V1121Z" fill="#1D1D1D"/>
<path d="M428 1155H391V1189H428V1155Z" fill="#1D1D1D"/>
<path d="M391 1189H354V1223H391V1189Z" fill="#1D1D1D"/>
</svg>
