<svg width="1440" height="1106" viewBox="0 0 1440 1106" fill="none" xmlns="http://www.w3.org/2000/svg">
<g clip-path="url(#clip0_7098_12278)">
<path d="M1047.65 676.678C1043.81 730.257 1057.04 813.907 1057.04 813.907L1088.03 824.176L1078.82 849.503L800.001 752.55L814.68 724.957L842.5 737.107C842.5 737.107 914.423 685.385 948.632 641.231C989.773 588.132 1018.61 496.661 1018.61 496.661C1018.61 496.661 990.021 486.918 983.513 471.975C974.583 451.467 1022.97 467.27 1036.03 449.107C1043.07 439.313 1046.44 420.03 1046.44 420.03C1046.44 420.03 1006.87 330.33 1043.72 303.805C1066.68 287.272 1115.93 297.739 1115.93 297.739L1126.62 267.877L1111.68 262.531L1120.69 237.384L1135.62 242.73L1140.68 228.584L1170.54 239.274L1165.48 253.42L1179.62 258.483L1170.62 283.63L1156.48 278.567L1145.79 308.429C1145.79 308.429 1188.42 331.588 1195.38 358.099C1207.18 402.977 1113.23 443.943 1113.23 443.943C1113.23 443.943 1103.71 460.991 1102.82 473.019C1101.28 493.948 1143.44 513.992 1124.18 522.331C1111.02 528.031 1083.78 517.396 1083.78 517.396C1083.78 517.396 1052.44 609.71 1047.65 676.678Z" fill="#1D1D1D"/>
<path d="M184.5 1.5V177.5H-17.5V1.5H184.5Z" fill="white" stroke="#1D1D1D" stroke-width="3"/>
<path d="M362.499 0.5V178.5H183.598V0.5H362.499Z" fill="#1D1D1D" stroke="#1D1D1D"/>
<path d="M181.5 361.5V538.5H-7L-7 361.5H181.5Z" fill="white" stroke="#1D1D1D" stroke-width="3"/>
<path d="M181.5 721.5V906.5H-12V721.5H181.5Z" fill="white" stroke="#1D1D1D" stroke-width="3"/>
<rect x="181.5" y="721.5" width="547" height="185" fill="#1D1D1D" stroke="#1D1D1D" stroke-width="3"/>
<rect x="728.5" y="721.5" width="543" height="185" fill="white" stroke="#1D1D1D" stroke-width="3"/>
<path d="M-10 179H183.102V360.001H-10V179Z" fill="#1D1D1D"/>
<path d="M-24 540H183.102V720H-24V540Z" fill="#1D1D1D"/>
<path d="M1271.5 721V537.5H1453V721H1271.5Z" fill="white" stroke="#1D1D1D" stroke-width="3"/>
<path d="M1271.5 354.5V177.5L1453 177.5V354.5L1271.5 354.5Z" fill="white" stroke="#1D1D1D" stroke-width="3"/>
<rect x="1450" y="536" width="180" height="180" transform="rotate(-180 1450 536)" fill="#1D1D1D"/>
<rect x="1450" y="908" width="180" height="188" transform="rotate(-180 1450 908)" fill="#1D1D1D"/>
<path d="M1271.5 1.5V177.5H1089.5V1.5H1271.5Z" fill="white" stroke="#1D1D1D" stroke-width="3"/>
<path d="M1270 0H1450V179H1270V0Z" fill="#1D1D1D"/>
<rect x="724.5" y="1.5" width="177" height="176" fill="white" stroke="#1D1D1D" stroke-width="3"/>
<path d="M903 0H1088V179H903V0Z" fill="#1D1D1D"/>
<rect x="364.5" y="1.5" width="177" height="176" fill="white" stroke="#1D1D1D" stroke-width="3"/>
<rect x="543" width="180" height="179" fill="#1D1D1D"/>
<path d="M-5 905H1459V1106H-5V905Z" fill="#1D1D1D"/>
<path d="M180 905H729.5V1106H180V905Z" fill="white"/>
<path d="M1270 905H1455V1107H1270V905Z" fill="white"/>
<ellipse cx="903.487" cy="335.214" rx="31.0342" ry="31.0342" transform="rotate(3.6725 903.487 335.214)" fill="#1D1D1D"/>
<path d="M1036.47 983.684C1045.27 1022.29 1034.52 1158.71 1034.52 1158.71L947.782 1153.15L861.065 1147.58L902.797 353.143L923.444 354.468C923.444 354.468 974.215 433.192 968.777 487.989C964.891 527.148 929.646 580.845 929.646 580.845C929.646 580.845 999.886 633.075 972.893 649.964C957.139 659.821 925.405 646.916 925.405 646.916L945.983 843.118C945.983 843.118 955.55 841.197 960.436 844.045C970.209 849.742 958.581 872.951 958.581 872.951C958.581 872.951 1024.73 932.133 1036.47 983.684Z" fill="#1D1D1D"/>
<path d="M690.468 961.476C676.813 998.637 689.617 1154.47 689.617 1154.47L863.051 1165.6L903.659 353.198L883.012 351.873C883.012 351.873 822.593 423.46 820.981 478.503C819.829 517.837 847.92 575.6 847.92 575.6C847.92 575.6 771.58 618.421 796.192 638.622C810.556 650.412 843.679 641.67 843.679 641.67L798.187 833.632C798.187 833.632 788.945 830.504 783.734 832.704C773.314 837.104 781.879 861.61 781.879 861.61C781.879 861.61 708.703 911.849 690.468 961.476Z" fill="#1D1D1D"/>
<path d="M716.857 1003.56C743.103 1025.13 742.158 1101.66 742.158 1101.66L642.12 1140.03L551.811 872.457L575.349 863.428L594.18 856.205C594.18 856.205 605.49 868.675 601.855 876.213C598.433 883.307 583.024 883.436 583.024 883.436L610.111 954.053C610.111 954.053 622.855 957.497 628.474 963.21C635.378 970.23 637.503 986.749 637.503 986.749C637.503 986.749 692.38 983.456 716.857 1003.56Z" fill="#1D1D1D"/>
<path d="M517.939 1079.85C512.845 1113.44 549.089 1161.06 549.089 1161.06L649.127 1122.69L552.969 872L529.43 881.029L510.6 888.252C510.6 888.252 510.53 905.087 518.274 908.26C525.563 911.246 537.105 901.037 537.105 901.037L564.192 971.653C564.192 971.653 557.02 982.737 556.663 990.743C556.224 1000.58 565.692 1014.28 565.692 1014.28C565.692 1014.28 522.689 1048.53 517.939 1079.85Z" fill="#1D1D1D"/>
<ellipse cx="538.769" cy="843.453" rx="46.6396" ry="46.6406" transform="rotate(-20.9856 538.769 843.453)" fill="#1D1D1D"/>
</g>
<defs>
<clipPath id="clip0_7098_12278">
<rect width="1440" height="1106" fill="white"/>
</clipPath>
</defs>
</svg>
